<svg version="1.1" xmlns="http://www.w3.org/2000/svg" xmlns:xlink="http://www.w3.org/1999/xlink" width="656.29052734375" height="503"><defs/><g><text fill="#eeeeee" stroke="none" font-family="Arial" font-size="24px" font-style="normal" font-weight="normal" text-decoration="none" x="0" y="0">UNREGISTERED</text><text fill="#eeeeee" stroke="none" font-family="Arial" font-size="24px" font-style="normal" font-weight="normal" text-decoration="none" x="0" y="30">UNREGISTERED</text><text fill="#eeeeee" stroke="none" font-family="Arial" font-size="24px" font-style="normal" font-weight="normal" text-decoration="none" x="0" y="60">UNREGISTERED</text><text fill="#eeeeee" stroke="none" font-family="Arial" font-size="24px" font-style="normal" font-weight="normal" text-decoration="none" x="0" y="90">UNREGISTERED</text><text fill="#eeeeee" stroke="none" font-family="Arial" font-size="24px" font-style="normal" font-weight="normal" text-decoration="none" x="0" y="120">UNREGISTERED</text><text fill="#eeeeee" stroke="none" font-family="Arial" font-size="24px" font-style="normal" font-weight="normal" text-decoration="none" x="0" y="150">UNREGISTERED</text><text fill="#eeeeee" stroke="none" font-family="Arial" font-size="24px" font-style="normal" font-weight="normal" text-decoration="none" x="0" y="180">UNREGISTERED</text><text fill="#eeeeee" stroke="none" font-family="Arial" font-size="24px" font-style="normal" font-weight="normal" text-decoration="none" x="0" y="210">UNREGISTERED</text><text fill="#eeeeee" stroke="none" font-family="Arial" font-size="24px" font-style="normal" font-weight="normal" text-decoration="none" x="0" y="240">UNREGISTERED</text><text fill="#eeeeee" stroke="none" font-family="Arial" font-size="24px" font-style="normal" font-weight="normal" text-decoration="none" x="0" y="270">UNREGISTERED</text><text fill="#eeeeee" stroke="none" font-family="Arial" font-size="24px" font-style="normal" font-weight="normal" text-decoration="none" x="0" y="300">UNREGISTERED</text><text fill="#eeeeee" stroke="none" font-family="Arial" font-size="24px" font-style="normal" font-weight="normal" text-decoration="none" x="0" y="330">UNREGISTERED</text><text fill="#eeeeee" stroke="none" font-family="Arial" font-size="24px" font-style="normal" font-weight="normal" text-decoration="none" x="0" y="360">UNREGISTERED</text><text fill="#eeeeee" stroke="none" font-family="Arial" font-size="24px" font-style="normal" font-weight="normal" text-decoration="none" x="0" y="390">UNREGISTERED</text><text fill="#eeeeee" stroke="none" font-family="Arial" font-size="24px" font-style="normal" font-weight="normal" text-decoration="none" x="0" y="420">UNREGISTERED</text><text fill="#eeeeee" stroke="none" font-family="Arial" font-size="24px" font-style="normal" font-weight="normal" text-decoration="none" x="0" y="450">UNREGISTERED</text><text fill="#eeeeee" stroke="none" font-family="Arial" font-size="24px" font-style="normal" font-weight="normal" text-decoration="none" x="0" y="480">UNREGISTERED</text><text fill="#eeeeee" stroke="none" font-family="Arial" font-size="24px" font-style="normal" font-weight="normal" text-decoration="none" x="200" y="0">UNREGISTERED</text><text fill="#eeeeee" stroke="none" font-family="Arial" font-size="24px" font-style="normal" font-weight="normal" text-decoration="none" x="200" y="30">UNREGISTERED</text><text fill="#eeeeee" stroke="none" font-family="Arial" font-size="24px" font-style="normal" font-weight="normal" text-decoration="none" x="200" y="60">UNREGISTERED</text><text fill="#eeeeee" stroke="none" font-family="Arial" font-size="24px" font-style="normal" font-weight="normal" text-decoration="none" x="200" y="90">UNREGISTERED</text><text fill="#eeeeee" stroke="none" font-family="Arial" font-size="24px" font-style="normal" font-weight="normal" text-decoration="none" x="200" y="120">UNREGISTERED</text><text fill="#eeeeee" stroke="none" font-family="Arial" font-size="24px" font-style="normal" font-weight="normal" text-decoration="none" x="200" y="150">UNREGISTERED</text><text fill="#eeeeee" stroke="none" font-family="Arial" font-size="24px" font-style="normal" font-weight="normal" text-decoration="none" x="200" y="180">UNREGISTERED</text><text fill="#eeeeee" stroke="none" font-family="Arial" font-size="24px" font-style="normal" font-weight="normal" text-decoration="none" x="200" y="210">UNREGISTERED</text><text fill="#eeeeee" stroke="none" font-family="Arial" font-size="24px" font-style="normal" font-weight="normal" text-decoration="none" x="200" y="240">UNREGISTERED</text><text fill="#eeeeee" stroke="none" font-family="Arial" font-size="24px" font-style="normal" font-weight="normal" text-decoration="none" x="200" y="270">UNREGISTERED</text><text fill="#eeeeee" stroke="none" font-family="Arial" font-size="24px" font-style="normal" font-weight="normal" text-decoration="none" x="200" y="300">UNREGISTERED</text><text fill="#eeeeee" stroke="none" font-family="Arial" font-size="24px" font-style="normal" font-weight="normal" text-decoration="none" x="200" y="330">UNREGISTERED</text><text fill="#eeeeee" stroke="none" font-family="Arial" font-size="24px" font-style="normal" font-weight="normal" text-decoration="none" x="200" y="360">UNREGISTERED</text><text fill="#eeeeee" stroke="none" font-family="Arial" font-size="24px" font-style="normal" font-weight="normal" text-decoration="none" x="200" y="390">UNREGISTERED</text><text fill="#eeeeee" stroke="none" font-family="Arial" font-size="24px" font-style="normal" font-weight="normal" text-decoration="none" x="200" y="420">UNREGISTERED</text><text fill="#eeeeee" stroke="none" font-family="Arial" font-size="24px" font-style="normal" font-weight="normal" text-decoration="none" x="200" y="450">UNREGISTERED</text><text fill="#eeeeee" stroke="none" font-family="Arial" font-size="24px" font-style="normal" font-weight="normal" text-decoration="none" x="200" y="480">UNREGISTERED</text><text fill="#eeeeee" stroke="none" font-family="Arial" font-size="24px" font-style="normal" font-weight="normal" text-decoration="none" x="400" y="0">UNREGISTERED</text><text fill="#eeeeee" stroke="none" font-family="Arial" font-size="24px" font-style="normal" font-weight="normal" text-decoration="none" x="400" y="30">UNREGISTERED</text><text fill="#eeeeee" stroke="none" font-family="Arial" font-size="24px" font-style="normal" font-weight="normal" text-decoration="none" x="400" y="60">UNREGISTERED</text><text fill="#eeeeee" stroke="none" font-family="Arial" font-size="24px" font-style="normal" font-weight="normal" text-decoration="none" x="400" y="90">UNREGISTERED</text><text fill="#eeeeee" stroke="none" font-family="Arial" font-size="24px" font-style="normal" font-weight="normal" text-decoration="none" x="400" y="120">UNREGISTERED</text><text fill="#eeeeee" stroke="none" font-family="Arial" font-size="24px" font-style="normal" font-weight="normal" text-decoration="none" x="400" y="150">UNREGISTERED</text><text fill="#eeeeee" stroke="none" font-family="Arial" font-size="24px" font-style="normal" font-weight="normal" text-decoration="none" x="400" y="180">UNREGISTERED</text><text fill="#eeeeee" stroke="none" font-family="Arial" font-size="24px" font-style="normal" font-weight="normal" text-decoration="none" x="400" y="210">UNREGISTERED</text><text fill="#eeeeee" stroke="none" font-family="Arial" font-size="24px" font-style="normal" font-weight="normal" text-decoration="none" x="400" y="240">UNREGISTERED</text><text fill="#eeeeee" stroke="none" font-family="Arial" font-size="24px" font-style="normal" font-weight="normal" text-decoration="none" x="400" y="270">UNREGISTERED</text><text fill="#eeeeee" stroke="none" font-family="Arial" font-size="24px" font-style="normal" font-weight="normal" text-decoration="none" x="400" y="300">UNREGISTERED</text><text fill="#eeeeee" stroke="none" font-family="Arial" font-size="24px" font-style="normal" font-weight="normal" text-decoration="none" x="400" y="330">UNREGISTERED</text><text fill="#eeeeee" stroke="none" font-family="Arial" font-size="24px" font-style="normal" font-weight="normal" text-decoration="none" x="400" y="360">UNREGISTERED</text><text fill="#eeeeee" stroke="none" font-family="Arial" font-size="24px" font-style="normal" font-weight="normal" text-decoration="none" x="400" y="390">UNREGISTERED</text><text fill="#eeeeee" stroke="none" font-family="Arial" font-size="24px" font-style="normal" font-weight="normal" text-decoration="none" x="400" y="420">UNREGISTERED</text><text fill="#eeeeee" stroke="none" font-family="Arial" font-size="24px" font-style="normal" font-weight="normal" text-decoration="none" x="400" y="450">UNREGISTERED</text><text fill="#eeeeee" stroke="none" font-family="Arial" font-size="24px" font-style="normal" font-weight="normal" text-decoration="none" x="400" y="480">UNREGISTERED</text><text fill="#eeeeee" stroke="none" font-family="Arial" font-size="24px" font-style="normal" font-weight="normal" text-decoration="none" x="600" y="0">UNREGISTERED</text><text fill="#eeeeee" stroke="none" font-family="Arial" font-size="24px" font-style="normal" font-weight="normal" text-decoration="none" x="600" y="30">UNREGISTERED</text><text fill="#eeeeee" stroke="none" font-family="Arial" font-size="24px" font-style="normal" font-weight="normal" text-decoration="none" x="600" y="60">UNREGISTERED</text><text fill="#eeeeee" stroke="none" font-family="Arial" font-size="24px" font-style="normal" font-weight="normal" text-decoration="none" x="600" y="90">UNREGISTERED</text><text fill="#eeeeee" stroke="none" font-family="Arial" font-size="24px" font-style="normal" font-weight="normal" text-decoration="none" x="600" y="120">UNREGISTERED</text><text fill="#eeeeee" stroke="none" font-family="Arial" font-size="24px" font-style="normal" font-weight="normal" text-decoration="none" x="600" y="150">UNREGISTERED</text><text fill="#eeeeee" stroke="none" font-family="Arial" font-size="24px" font-style="normal" font-weight="normal" text-decoration="none" x="600" y="180">UNREGISTERED</text><text fill="#eeeeee" stroke="none" font-family="Arial" font-size="24px" font-style="normal" font-weight="normal" text-decoration="none" x="600" y="210">UNREGISTERED</text><text fill="#eeeeee" stroke="none" font-family="Arial" font-size="24px" font-style="normal" font-weight="normal" text-decoration="none" x="600" y="240">UNREGISTERED</text><text fill="#eeeeee" stroke="none" font-family="Arial" font-size="24px" font-style="normal" font-weight="normal" text-decoration="none" x="600" y="270">UNREGISTERED</text><text fill="#eeeeee" stroke="none" font-family="Arial" font-size="24px" font-style="normal" font-weight="normal" text-decoration="none" x="600" y="300">UNREGISTERED</text><text fill="#eeeeee" stroke="none" font-family="Arial" font-size="24px" font-style="normal" font-weight="normal" text-decoration="none" x="600" y="330">UNREGISTERED</text><text fill="#eeeeee" stroke="none" font-family="Arial" font-size="24px" font-style="normal" font-weight="normal" text-decoration="none" x="600" y="360">UNREGISTERED</text><text fill="#eeeeee" stroke="none" font-family="Arial" font-size="24px" font-style="normal" font-weight="normal" text-decoration="none" x="600" y="390">UNREGISTERED</text><text fill="#eeeeee" stroke="none" font-family="Arial" font-size="24px" font-style="normal" font-weight="normal" text-decoration="none" x="600" y="420">UNREGISTERED</text><text fill="#eeeeee" stroke="none" font-family="Arial" font-size="24px" font-style="normal" font-weight="normal" text-decoration="none" x="600" y="450">UNREGISTERED</text><text fill="#eeeeee" stroke="none" font-family="Arial" font-size="24px" font-style="normal" font-weight="normal" text-decoration="none" x="600" y="480">UNREGISTERED</text><g transform="translate(-90,-22) scale(1,1)"><rect fill="#C0C0C0" stroke="none" x="107" y="166" width="306.1259765625" height="93" opacity="0.2"/></g><g transform="translate(-90,-22) scale(1,1)"><rect fill="#ffffff" stroke="none" x="100" y="159" width="306.1259765625" height="93"/></g><g transform="translate(-90,-22) scale(1,1)"><path fill="none" stroke="#000000" d="M 100 159 L 406.1259765625 159 L 406.1259765625 252 L 100 252 L 100 159 Z Z" stroke-miterlimit="10"/></g><g transform="translate(-90,-22) scale(1,1)"><path fill="none" stroke="#000000" d="M 100 182 L 406.1259765625 182" stroke-miterlimit="10"/></g><g transform="translate(-90,-22) scale(1,1)"><path fill="none" stroke="#000000" d="M 128.05908203125 182 L 128.05908203125 252" stroke-miterlimit="10"/></g><g transform="translate(-90,-22) scale(1,1)"><path fill="none" stroke="#000000" d="M 216.08447265625 182 L 216.08447265625 252" stroke-miterlimit="10"/></g><g transform="translate(-90,-22) scale(1,1)"><g><path fill="none" stroke="none"/><text fill="#000000" stroke="none" font-family="Arial" font-size="13px" font-style="normal" font-weight="bold" text-decoration="none" x="236.08935546875" y="176.5">Users</text></g></g><g transform="translate(-90,-22) scale(1,1)"><g><path fill="none" stroke="none"/><text fill="#000000" stroke="none" font-family="Arial" font-size="13px" font-style="normal" font-weight="normal" text-decoration="none" x="105" y="200">PK</text></g></g><g transform="translate(-90,-22) scale(1,1)"><g><path fill="none" stroke="none"/><text fill="#000000" stroke="none" font-family="Arial" font-size="13px" font-style="normal" font-weight="normal" text-decoration="none" x="133.05908203125" y="200">Id_user</text></g></g><g transform="translate(-90,-22) scale(1,1)"><g><path fill="none" stroke="none"/><text fill="#000000" stroke="none" font-family="Arial" font-size="13px" font-style="normal" font-weight="normal" text-decoration="none" x="221.08447265625" y="200">uuid</text></g></g><g transform="translate(-90,-22) scale(1,1)"><g><path fill="none" stroke="none"/><text fill="#000000" stroke="none" font-family="Arial" font-size="13px" font-style="normal" font-weight="normal" text-decoration="none" x="105" y="199.5"></text></g></g><g transform="translate(-90,-22) scale(1,1)"><g><path fill="none" stroke="none"/><text fill="#000000" stroke="none" font-family="Arial" font-size="13px" font-style="normal" font-weight="normal" text-decoration="none" x="105" y="215"></text></g></g><g transform="translate(-90,-22) scale(1,1)"><g><path fill="none" stroke="none"/><text fill="#000000" stroke="none" font-family="Arial" font-size="13px" font-style="normal" font-weight="normal" text-decoration="none" x="133.05908203125" y="215">Tipo</text></g></g><g transform="translate(-90,-22) scale(1,1)"><g><path fill="none" stroke="none"/><text fill="#000000" stroke="none" font-family="Arial" font-size="13px" font-style="normal" font-weight="normal" text-decoration="none" x="221.08447265625" y="215">INTEGER</text></g></g><g transform="translate(-90,-22) scale(1,1)"><g><path fill="none" stroke="none"/><text fill="#000000" stroke="none" font-family="Arial" font-size="13px" font-style="normal" font-weight="normal" text-decoration="none" x="105" y="214.5"></text></g></g><g transform="translate(-90,-22) scale(1,1)"><g><path fill="none" stroke="none"/><text fill="#000000" stroke="none" font-family="Arial" font-size="13px" font-style="normal" font-weight="normal" text-decoration="none" x="105" y="230"></text></g></g><g transform="translate(-90,-22) scale(1,1)"><g><path fill="none" stroke="none"/><text fill="#000000" stroke="none" font-family="Arial" font-size="13px" font-style="normal" font-weight="normal" text-decoration="none" x="133.05908203125" y="230">NombreUser</text></g></g><g transform="translate(-90,-22) scale(1,1)"><g><path fill="none" stroke="none"/><text fill="#000000" stroke="none" font-family="Arial" font-size="13px" font-style="normal" font-weight="normal" text-decoration="none" x="221.08447265625" y="230">VARCHAR(255)</text></g></g><g transform="translate(-90,-22) scale(1,1)"><g><path fill="none" stroke="none"/><text fill="#000000" stroke="none" font-family="Arial" font-size="13px" font-style="normal" font-weight="normal" text-decoration="none" x="105" y="229.5"></text></g></g><g transform="translate(-90,-22) scale(1,1)"><g><path fill="none" stroke="none"/><text fill="#000000" stroke="none" font-family="Arial" font-size="13px" font-style="normal" font-weight="normal" text-decoration="none" x="105" y="245"></text></g></g><g transform="translate(-90,-22) scale(1,1)"><g><path fill="none" stroke="none"/><text fill="#000000" stroke="none" font-family="Arial" font-size="13px" font-style="normal" font-weight="normal" text-decoration="none" x="133.05908203125" y="245">currentGPS</text></g></g><g transform="translate(-90,-22) scale(1,1)"><g><path fill="none" stroke="none"/><text fill="#000000" stroke="none" font-family="Arial" font-size="13px" font-style="normal" font-weight="normal" text-decoration="none" x="221.08447265625" y="245">POINT</text></g></g><g transform="translate(-90,-22) scale(1,1)"><g><path fill="none" stroke="none"/><text fill="#000000" stroke="none" font-family="Arial" font-size="13px" font-style="normal" font-weight="normal" text-decoration="none" x="105" y="244.5"></text></g></g><g transform="translate(-90,-22) scale(1,1)"><rect fill="#C0C0C0" stroke="none" x="539" y="198" width="204.29052734375" height="152" opacity="0.2"/></g><g transform="translate(-90,-22) scale(1,1)"><rect fill="#ffffff" stroke="none" x="532" y="191" width="204.29052734375" height="152"/></g><g transform="translate(-90,-22) scale(1,1)"><path fill="none" stroke="#000000" d="M 532 191 L 736.29052734375 191 L 736.29052734375 343 L 532 343 L 532 191 Z Z" stroke-miterlimit="10"/></g><g transform="translate(-90,-22) scale(1,1)"><path fill="none" stroke="#000000" d="M 532 214 L 736.29052734375 214" stroke-miterlimit="10"/></g><g transform="translate(-90,-22) scale(1,1)"><path fill="none" stroke="#000000" d="M 559.3291015625 214 L 559.3291015625 343" stroke-miterlimit="10"/></g><g transform="translate(-90,-22) scale(1,1)"><path fill="none" stroke="#000000" d="M 632.9072265625 214 L 632.9072265625 343" stroke-miterlimit="10"/></g><g transform="translate(-90,-22) scale(1,1)"><g><path fill="none" stroke="none"/><text fill="#000000" stroke="none" font-family="Arial" font-size="13px" font-style="normal" font-weight="bold" text-decoration="none" x="570.186279296875" y="208.5">Photo_Param_Upload</text></g></g><g transform="translate(-90,-22) scale(1,1)"><g><path fill="none" stroke="none"/><text fill="#000000" stroke="none" font-family="Arial" font-size="13px" font-style="normal" font-weight="normal" text-decoration="none" x="537" y="232">FK</text></g></g><g transform="translate(-90,-22) scale(1,1)"><g><path fill="none" stroke="none"/><text fill="#000000" stroke="none" font-family="Arial" font-size="13px" font-style="normal" font-weight="normal" text-decoration="none" x="564.3291015625" y="232">Id_Photo</text></g></g><g transform="translate(-90,-22) scale(1,1)"><g><path fill="none" stroke="none"/><text fill="#000000" stroke="none" font-family="Arial" font-size="13px" font-style="normal" font-weight="normal" text-decoration="none" x="637.9072265625" y="232">uuid</text></g></g><g transform="translate(-90,-22) scale(1,1)"><g><path fill="none" stroke="none"/><text fill="#000000" stroke="none" font-family="Arial" font-size="13px" font-style="normal" font-weight="normal" text-decoration="none" x="537" y="231.5"></text></g></g><g transform="translate(-90,-22) scale(1,1)"><g><path fill="none" stroke="none"/><text fill="#000000" stroke="none" font-family="Arial" font-size="13px" font-style="normal" font-weight="normal" text-decoration="none" x="537" y="247">FK</text></g></g><g transform="translate(-90,-22) scale(1,1)"><g><path fill="none" stroke="none"/><text fill="#000000" stroke="none" font-family="Arial" font-size="13px" font-style="normal" font-weight="normal" text-decoration="none" x="564.3291015625" y="247">Id_User</text></g></g><g transform="translate(-90,-22) scale(1,1)"><g><path fill="none" stroke="none"/><text fill="#000000" stroke="none" font-family="Arial" font-size="13px" font-style="normal" font-weight="normal" text-decoration="none" x="637.9072265625" y="247">uuid</text></g></g><g transform="translate(-90,-22) scale(1,1)"><g><path fill="none" stroke="none"/><text fill="#000000" stroke="none" font-family="Arial" font-size="13px" font-style="normal" font-weight="normal" text-decoration="none" x="537" y="246.5"></text></g></g><g transform="translate(-90,-22) scale(1,1)"><g><path fill="none" stroke="none"/><text fill="#000000" stroke="none" font-family="Arial" font-size="13px" font-style="normal" font-weight="normal" text-decoration="none" x="537" y="262">FK</text></g></g><g transform="translate(-90,-22) scale(1,1)"><g><path fill="none" stroke="none"/><text fill="#000000" stroke="none" font-family="Arial" font-size="13px" font-style="normal" font-weight="normal" text-decoration="none" x="564.3291015625" y="262">Id_Param</text></g></g><g transform="translate(-90,-22) scale(1,1)"><g><path fill="none" stroke="none"/><text fill="#000000" stroke="none" font-family="Arial" font-size="13px" font-style="normal" font-weight="normal" text-decoration="none" x="637.9072265625" y="262">uuid</text></g></g><g transform="translate(-90,-22) scale(1,1)"><g><path fill="none" stroke="none"/><text fill="#000000" stroke="none" font-family="Arial" font-size="13px" font-style="normal" font-weight="normal" text-decoration="none" x="537" y="261.5"></text></g></g><g transform="translate(-90,-22) scale(1,1)"><g><path fill="none" stroke="none"/><text fill="#000000" stroke="none" font-family="Arial" font-size="13px" font-style="normal" font-weight="normal" text-decoration="none" x="537" y="277"></text></g></g><g transform="translate(-90,-22) scale(1,1)"><g><path fill="none" stroke="none"/><text fill="#000000" stroke="none" font-family="Arial" font-size="13px" font-style="normal" font-weight="normal" text-decoration="none" x="564.3291015625" y="277">Result</text></g></g><g transform="translate(-90,-22) scale(1,1)"><g><path fill="none" stroke="none"/><text fill="#000000" stroke="none" font-family="Arial" font-size="13px" font-style="normal" font-weight="normal" text-decoration="none" x="637.9072265625" y="277">VARCHAR(300)</text></g></g><g transform="translate(-90,-22) scale(1,1)"><g><path fill="none" stroke="none"/><text fill="#000000" stroke="none" font-family="Arial" font-size="13px" font-style="normal" font-weight="normal" text-decoration="none" x="537" y="276.5"></text></g></g><g transform="translate(-90,-22) scale(1,1)"><g><path fill="none" stroke="none"/><text fill="#000000" stroke="none" font-family="Arial" font-size="13px" font-style="normal" font-weight="normal" text-decoration="none" x="537" y="292"></text></g></g><g transform="translate(-90,-22) scale(1,1)"><g><path fill="none" stroke="none"/><text fill="#000000" stroke="none" font-family="Arial" font-size="13px" font-style="normal" font-weight="normal" text-decoration="none" x="564.3291015625" y="292">Date_Sent</text></g></g><g transform="translate(-90,-22) scale(1,1)"><g><path fill="none" stroke="none"/><text fill="#000000" stroke="none" font-family="Arial" font-size="13px" font-style="normal" font-weight="normal" text-decoration="none" x="637.9072265625" y="292">DATE</text></g></g><g transform="translate(-90,-22) scale(1,1)"><g><path fill="none" stroke="none"/><text fill="#000000" stroke="none" font-family="Arial" font-size="13px" font-style="normal" font-weight="normal" text-decoration="none" x="537" y="291.5"></text></g></g><g transform="translate(-90,-22) scale(1,1)"><rect fill="#C0C0C0" stroke="none" x="107" y="302" width="306.1259765625" height="90" opacity="0.2"/></g><g transform="translate(-90,-22) scale(1,1)"><rect fill="#ffffff" stroke="none" x="100" y="295" width="306.1259765625" height="90"/></g><g transform="translate(-90,-22) scale(1,1)"><path fill="none" stroke="#000000" d="M 100 295 L 406.1259765625 295 L 406.1259765625 385 L 100 385 L 100 295 Z Z" stroke-miterlimit="10"/></g><g transform="translate(-90,-22) scale(1,1)"><path fill="none" stroke="#000000" d="M 100 318 L 406.1259765625 318" stroke-miterlimit="10"/></g><g transform="translate(-90,-22) scale(1,1)"><path fill="none" stroke="#000000" d="M 128.05908203125 318 L 128.05908203125 385" stroke-miterlimit="10"/></g><g transform="translate(-90,-22) scale(1,1)"><path fill="none" stroke="#000000" d="M 224 318 L 224 385" stroke-miterlimit="10"/></g><g transform="translate(-90,-22) scale(1,1)"><g><path fill="none" stroke="none"/><text fill="#000000" stroke="none" font-family="Arial" font-size="13px" font-style="normal" font-weight="bold" text-decoration="none" x="236.07666015625" y="312.5">Photo</text></g></g><g transform="translate(-90,-22) scale(1,1)"><g><path fill="none" stroke="none"/><text fill="#000000" stroke="none" font-family="Arial" font-size="13px" font-style="normal" font-weight="normal" text-decoration="none" x="105" y="336">PK</text></g></g><g transform="translate(-90,-22) scale(1,1)"><g><path fill="none" stroke="none"/><text fill="#000000" stroke="none" font-family="Arial" font-size="13px" font-style="normal" font-weight="normal" text-decoration="none" x="133.05908203125" y="336">Id_Photo</text></g></g><g transform="translate(-90,-22) scale(1,1)"><g><path fill="none" stroke="none"/><text fill="#000000" stroke="none" font-family="Arial" font-size="13px" font-style="normal" font-weight="normal" text-decoration="none" x="229" y="336">uuid</text></g></g><g transform="translate(-90,-22) scale(1,1)"><g><path fill="none" stroke="none"/><text fill="#000000" stroke="none" font-family="Arial" font-size="13px" font-style="normal" font-weight="normal" text-decoration="none" x="105" y="335.5"></text></g></g><g transform="translate(-90,-22) scale(1,1)"><g><path fill="none" stroke="none"/><text fill="#000000" stroke="none" font-family="Arial" font-size="13px" font-style="normal" font-weight="normal" text-decoration="none" x="105" y="351"></text></g></g><g transform="translate(-90,-22) scale(1,1)"><g><path fill="none" stroke="none"/><text fill="#000000" stroke="none" font-family="Arial" font-size="13px" font-style="normal" font-weight="normal" text-decoration="none" x="133.05908203125" y="351">NombrePhoto</text></g></g><g transform="translate(-90,-22) scale(1,1)"><g><path fill="none" stroke="none"/><text fill="#000000" stroke="none" font-family="Arial" font-size="13px" font-style="normal" font-weight="normal" text-decoration="none" x="229" y="351">VARCHAR(100)</text></g></g><g transform="translate(-90,-22) scale(1,1)"><g><path fill="none" stroke="none"/><text fill="#000000" stroke="none" font-family="Arial" font-size="13px" font-style="normal" font-weight="normal" text-decoration="none" x="105" y="350.5"></text></g></g><g transform="translate(-90,-22) scale(1,1)"><g><path fill="none" stroke="none"/><text fill="#000000" stroke="none" font-family="Arial" font-size="13px" font-style="normal" font-weight="normal" text-decoration="none" x="105" y="366"></text></g></g><g transform="translate(-90,-22) scale(1,1)"><g><path fill="none" stroke="none"/><text fill="#000000" stroke="none" font-family="Arial" font-size="13px" font-style="normal" font-weight="normal" text-decoration="none" x="133.05908203125" y="366">Archivo</text></g></g><g transform="translate(-90,-22) scale(1,1)"><g><path fill="none" stroke="none"/><text fill="#000000" stroke="none" font-family="Arial" font-size="13px" font-style="normal" font-weight="normal" text-decoration="none" x="229" y="366">BLOB</text></g></g><g transform="translate(-90,-22) scale(1,1)"><g><path fill="none" stroke="none"/><text fill="#000000" stroke="none" font-family="Arial" font-size="13px" font-style="normal" font-weight="normal" text-decoration="none" x="105" y="365.5"></text></g></g><g transform="translate(-90,-22) scale(1,1)"><g><path fill="none" stroke="none"/><text fill="#000000" stroke="none" font-family="Arial" font-size="13px" font-style="normal" font-weight="normal" text-decoration="none" x="105" y="381"></text></g></g><g transform="translate(-90,-22) scale(1,1)"><g><path fill="none" stroke="none"/><text fill="#000000" stroke="none" font-family="Arial" font-size="13px" font-style="normal" font-weight="normal" text-decoration="none" x="133.05908203125" y="381">Categoría</text></g></g><g transform="translate(-90,-22) scale(1,1)"><g><path fill="none" stroke="none"/><text fill="#000000" stroke="none" font-family="Arial" font-size="13px" font-style="normal" font-weight="normal" text-decoration="none" x="229" y="381">VARCHAR(100)</text></g></g><g transform="translate(-90,-22) scale(1,1)"><g><path fill="none" stroke="none"/><text fill="#000000" stroke="none" font-family="Arial" font-size="13px" font-style="normal" font-weight="normal" text-decoration="none" x="105" y="380.5"></text></g></g><g transform="translate(-90,-22) scale(1,1)"><rect fill="#C0C0C0" stroke="none" x="111" y="447" width="304" height="75" opacity="0.2"/></g><g transform="translate(-90,-22) scale(1,1)"><rect fill="#ffffff" stroke="none" x="104" y="440" width="304" height="75"/></g><g transform="translate(-90,-22) scale(1,1)"><path fill="none" stroke="#000000" d="M 104 440 L 408 440 L 408 515 L 104 515 L 104 440 Z Z" stroke-miterlimit="10"/></g><g transform="translate(-90,-22) scale(1,1)"><path fill="none" stroke="#000000" d="M 104 463 L 408 463" stroke-miterlimit="10"/></g><g transform="translate(-90,-22) scale(1,1)"><path fill="none" stroke="#000000" d="M 132.05908203125 463 L 132.05908203125 515" stroke-miterlimit="10"/></g><g transform="translate(-90,-22) scale(1,1)"><path fill="none" stroke="#000000" d="M 200.5908203125 463 L 200.5908203125 515" stroke-miterlimit="10"/></g><g transform="translate(-90,-22) scale(1,1)"><g><path fill="none" stroke="none"/><text fill="#000000" stroke="none" font-family="Arial" font-size="13px" font-style="normal" font-weight="bold" text-decoration="none" x="222.405029296875" y="457.5">Parámetros</text></g></g><g transform="translate(-90,-22) scale(1,1)"><g><path fill="none" stroke="none"/><text fill="#000000" stroke="none" font-family="Arial" font-size="13px" font-style="normal" font-weight="normal" text-decoration="none" x="109" y="481">PK</text></g></g><g transform="translate(-90,-22) scale(1,1)"><g><path fill="none" stroke="none"/><text fill="#000000" stroke="none" font-family="Arial" font-size="13px" font-style="normal" font-weight="normal" text-decoration="none" x="137.05908203125" y="481">Id_Param</text></g></g><g transform="translate(-90,-22) scale(1,1)"><g><path fill="none" stroke="none"/><text fill="#000000" stroke="none" font-family="Arial" font-size="13px" font-style="normal" font-weight="normal" text-decoration="none" x="205.5908203125" y="481">uuid</text></g></g><g transform="translate(-90,-22) scale(1,1)"><g><path fill="none" stroke="none"/><text fill="#000000" stroke="none" font-family="Arial" font-size="13px" font-style="normal" font-weight="normal" text-decoration="none" x="109" y="480.5"></text></g></g><g transform="translate(-90,-22) scale(1,1)"><g><path fill="none" stroke="none"/><text fill="#000000" stroke="none" font-family="Arial" font-size="13px" font-style="normal" font-weight="normal" text-decoration="none" x="109" y="496"></text></g></g><g transform="translate(-90,-22) scale(1,1)"><g><path fill="none" stroke="none"/><text fill="#000000" stroke="none" font-family="Arial" font-size="13px" font-style="normal" font-weight="normal" text-decoration="none" x="137.05908203125" y="496">Nombre</text></g></g><g transform="translate(-90,-22) scale(1,1)"><g><path fill="none" stroke="none"/><text fill="#000000" stroke="none" font-family="Arial" font-size="13px" font-style="normal" font-weight="normal" text-decoration="none" x="205.5908203125" y="496">VARCHAR(100)</text></g></g><g transform="translate(-90,-22) scale(1,1)"><g><path fill="none" stroke="none"/><text fill="#000000" stroke="none" font-family="Arial" font-size="13px" font-style="normal" font-weight="normal" text-decoration="none" x="109" y="495.5"></text></g></g><g transform="translate(-90,-22) scale(1,1)"><g><path fill="none" stroke="none"/><text fill="#000000" stroke="none" font-family="Arial" font-size="13px" font-style="normal" font-weight="normal" text-decoration="none" x="109" y="511"></text></g></g><g transform="translate(-90,-22) scale(1,1)"><g><path fill="none" stroke="none"/><text fill="#000000" stroke="none" font-family="Arial" font-size="13px" font-style="normal" font-weight="normal" text-decoration="none" x="137.05908203125" y="511">Detalle</text></g></g><g transform="translate(-90,-22) scale(1,1)"><g><path fill="none" stroke="none"/><text fill="#000000" stroke="none" font-family="Arial" font-size="13px" font-style="normal" font-weight="normal" text-decoration="none" x="205.5908203125" y="511">VARCHAR(255)</text></g></g><g transform="translate(-90,-22) scale(1,1)"><g><path fill="none" stroke="none"/><text fill="#000000" stroke="none" font-family="Arial" font-size="13px" font-style="normal" font-weight="normal" text-decoration="none" x="109" y="510.5"></text></g></g><g transform="translate(-90,-22) scale(1,1)"><path fill="none" stroke="#000000" d="M 406 250 L 532 250" stroke-miterlimit="10"/></g><g transform="translate(-90,-22) scale(1,1)"><path fill="none" stroke="#000000" d="M 518 250 L 532 257" stroke-miterlimit="10"/></g><g transform="translate(-90,-22) scale(1,1)"><path fill="none" stroke="#000000" d="M 518 250 L 532 243" stroke-miterlimit="10"/></g><g transform="translate(-90,-22) scale(1,1)"><path fill="#FFFFFF" stroke="none" d="M 503 250 C 503 246.1340064 506.1340064 243 510 243 C 513.8659936 243 517 246.1340064 517 250 C 517 253.8659936 513.8659936 257 510 257 C 506.1340064 257 503 253.8659936 503 250 Z"/></g><g transform="translate(-90,-22) scale(1,1)"><path fill="none" stroke="#000000" d="M 503 250 C 503 246.1340064 506.1340064 243 510 243 C 513.8659936 243 517 246.1340064 517 250 C 517 253.8659936 513.8659936 257 510 257 C 506.1340064 257 503 253.8659936 503 250 Z" stroke-miterlimit="10"/></g><g transform="translate(-90,-22) scale(1,1)"><path fill="none" stroke="#000000" d="M 413 243 L 413 257" stroke-miterlimit="10"/></g><g transform="translate(-90,-22) scale(1,1)"><path fill="none" stroke="#000000" d="M 420 243 L 420 257" stroke-miterlimit="10"/></g><g transform="translate(-90,-22) scale(1,1)"><g><path fill="none" stroke="none"/><text fill="#000000" stroke="none" font-family="Arial" font-size="13px" font-style="normal" font-weight="normal" text-decoration="none" x="430.5" y="241.5"></text></g></g><g transform="translate(-90,-22) scale(1,1)"><g><path fill="none" stroke="none"/><text fill="#000000" stroke="none" font-family="Arial" font-size="13px" font-style="normal" font-weight="normal" text-decoration="none" x="505.5" y="241.5"></text></g></g><g transform="translate(-90,-22) scale(1,1)"><path fill="none" stroke="#000000" d="M 406 311 L 532 311" stroke-miterlimit="10"/></g><g transform="translate(-90,-22) scale(1,1)"><path fill="none" stroke="#000000" d="M 518 311 L 532 318" stroke-miterlimit="10"/></g><g transform="translate(-90,-22) scale(1,1)"><path fill="none" stroke="#000000" d="M 518 311 L 532 304" stroke-miterlimit="10"/></g><g transform="translate(-90,-22) scale(1,1)"><path fill="#FFFFFF" stroke="none" d="M 503 311 C 503 307.1340064 506.1340064 304 510 304 C 513.8659936 304 517 307.1340064 517 311 C 517 314.8659936 513.8659936 318 510 318 C 506.1340064 318 503 314.8659936 503 311 Z"/></g><g transform="translate(-90,-22) scale(1,1)"><path fill="none" stroke="#000000" d="M 503 311 C 503 307.1340064 506.1340064 304 510 304 C 513.8659936 304 517 307.1340064 517 311 C 517 314.8659936 513.8659936 318 510 318 C 506.1340064 318 503 314.8659936 503 311 Z" stroke-miterlimit="10"/></g><g transform="translate(-90,-22) scale(1,1)"><path fill="none" stroke="#000000" d="M 413 304 L 413 318" stroke-miterlimit="10"/></g><g transform="translate(-90,-22) scale(1,1)"><path fill="none" stroke="#000000" d="M 420 304 L 420 318" stroke-miterlimit="10"/></g><g transform="translate(-90,-22) scale(1,1)"><g><path fill="none" stroke="none"/><text fill="#000000" stroke="none" font-family="Arial" font-size="13px" font-style="normal" font-weight="normal" text-decoration="none" x="430.5" y="302.5"></text></g></g><g transform="translate(-90,-22) scale(1,1)"><g><path fill="none" stroke="none"/><text fill="#000000" stroke="none" font-family="Arial" font-size="13px" font-style="normal" font-weight="normal" text-decoration="none" x="505.5" y="302.5"></text></g></g><g transform="translate(-90,-22) scale(1,1)"><path fill="none" stroke="#000000" d="M 408 440 L 584 440 M 584 440 A 8 8 0 0 0 592 432 L 592 343" stroke-miterlimit="10"/></g><g transform="translate(-90,-22) scale(1,1)"><path fill="none" stroke="#000000" d="M 592 357 L 599 343" stroke-miterlimit="10"/></g><g transform="translate(-90,-22) scale(1,1)"><path fill="none" stroke="#000000" d="M 592 357 L 585 343" stroke-miterlimit="10"/></g><g transform="translate(-90,-22) scale(1,1)"><path fill="#FFFFFF" stroke="none" d="M 585 365 C 585 361.1340064 588.1340064 358 592 358 C 595.8659936 358 599 361.1340064 599 365 C 599 368.8659936 595.8659936 372 592 372 C 588.1340064 372 585 368.8659936 585 365 Z"/></g><g transform="translate(-90,-22) scale(1,1)"><path fill="none" stroke="#000000" d="M 585 365 C 585 361.1340064 588.1340064 358 592 358 C 595.8659936 358 599 361.1340064 599 365 C 599 368.8659936 595.8659936 372 592 372 C 588.1340064 372 585 368.8659936 585 365 Z" stroke-miterlimit="10"/></g><g transform="translate(-90,-22) scale(1,1)"><path fill="none" stroke="#000000" d="M 415 433 L 415 447" stroke-miterlimit="10"/></g><g transform="translate(-90,-22) scale(1,1)"><path fill="none" stroke="#000000" d="M 422 433 L 422 447" stroke-miterlimit="10"/></g><g transform="translate(-90,-22) scale(1,1)"><g><path fill="none" stroke="none"/><text fill="#000000" stroke="none" font-family="Arial" font-size="13px" font-style="normal" font-weight="normal" text-decoration="none" x="432.5" y="431.5"></text></g></g><g transform="translate(-90,-22) scale(1,1)"><g><path fill="none" stroke="none"/><text fill="#000000" stroke="none" font-family="Arial" font-size="13px" font-style="normal" font-weight="normal" text-decoration="none" x="576.5" y="374.5"></text></g></g><g transform="translate(-90,-22) scale(1,1)"><path fill="#ffff49" stroke="none" d="M 576 32 L 716.4189453125 32 L 726.4189453125 42 L 726.4189453125 108 L 576 108 L 576 32"/></g><g transform="translate(-90,-22) scale(1,1)"><path fill="none" stroke="#000000" d="M 576 32 L 716.4189453125 32 L 726.4189453125 42 L 726.4189453125 108 L 576 108 L 576 32 L 576 32" stroke-miterlimit="10"/></g><g transform="translate(-90,-22) scale(1,1)"><path fill="none" stroke="#000000" d="M 716.4189453125 32 L 716.4189453125 42 L 726.4189453125 42 L 716.4189453125 32" stroke-miterlimit="10"/></g><g transform="translate(-90,-22) scale(1,1)"><g><path fill="none" stroke="none"/><text fill="#000000" stroke="none" font-family="Arial" font-size="22px" font-style="normal" font-weight="normal" text-decoration="none" x="591.2041015625" y="59">ENTRENAR</text><text fill="#000000" stroke="none" font-family="Arial" font-size="22px" font-style="normal" font-weight="normal" text-decoration="none" x="644.37255859375" y="81">Y</text><text fill="#000000" stroke="none" font-family="Arial" font-size="22px" font-style="normal" font-weight="normal" text-decoration="none" x="585.5" y="103">CONSULTAR</text></g></g></g></svg>