<svg version="1.1" xmlns="http://www.w3.org/2000/svg" xmlns:xlink="http://www.w3.org/1999/xlink" width="675" height="413"><defs/><g><text fill="#eeeeee" stroke="none" font-family="Arial" font-size="24px" font-style="normal" font-weight="normal" text-decoration="none" x="0" y="0">UNREGISTERED</text><text fill="#eeeeee" stroke="none" font-family="Arial" font-size="24px" font-style="normal" font-weight="normal" text-decoration="none" x="0" y="30">UNREGISTERED</text><text fill="#eeeeee" stroke="none" font-family="Arial" font-size="24px" font-style="normal" font-weight="normal" text-decoration="none" x="0" y="60">UNREGISTERED</text><text fill="#eeeeee" stroke="none" font-family="Arial" font-size="24px" font-style="normal" font-weight="normal" text-decoration="none" x="0" y="90">UNREGISTERED</text><text fill="#eeeeee" stroke="none" font-family="Arial" font-size="24px" font-style="normal" font-weight="normal" text-decoration="none" x="0" y="120">UNREGISTERED</text><text fill="#eeeeee" stroke="none" font-family="Arial" font-size="24px" font-style="normal" font-weight="normal" text-decoration="none" x="0" y="150">UNREGISTERED</text><text fill="#eeeeee" stroke="none" font-family="Arial" font-size="24px" font-style="normal" font-weight="normal" text-decoration="none" x="0" y="180">UNREGISTERED</text><text fill="#eeeeee" stroke="none" font-family="Arial" font-size="24px" font-style="normal" font-weight="normal" text-decoration="none" x="0" y="210">UNREGISTERED</text><text fill="#eeeeee" stroke="none" font-family="Arial" font-size="24px" font-style="normal" font-weight="normal" text-decoration="none" x="0" y="240">UNREGISTERED</text><text fill="#eeeeee" stroke="none" font-family="Arial" font-size="24px" font-style="normal" font-weight="normal" text-decoration="none" x="0" y="270">UNREGISTERED</text><text fill="#eeeeee" stroke="none" font-family="Arial" font-size="24px" font-style="normal" font-weight="normal" text-decoration="none" x="0" y="300">UNREGISTERED</text><text fill="#eeeeee" stroke="none" font-family="Arial" font-size="24px" font-style="normal" font-weight="normal" text-decoration="none" x="0" y="330">UNREGISTERED</text><text fill="#eeeeee" stroke="none" font-family="Arial" font-size="24px" font-style="normal" font-weight="normal" text-decoration="none" x="0" y="360">UNREGISTERED</text><text fill="#eeeeee" stroke="none" font-family="Arial" font-size="24px" font-style="normal" font-weight="normal" text-decoration="none" x="0" y="390">UNREGISTERED</text><text fill="#eeeeee" stroke="none" font-family="Arial" font-size="24px" font-style="normal" font-weight="normal" text-decoration="none" x="200" y="0">UNREGISTERED</text><text fill="#eeeeee" stroke="none" font-family="Arial" font-size="24px" font-style="normal" font-weight="normal" text-decoration="none" x="200" y="30">UNREGISTERED</text><text fill="#eeeeee" stroke="none" font-family="Arial" font-size="24px" font-style="normal" font-weight="normal" text-decoration="none" x="200" y="60">UNREGISTERED</text><text fill="#eeeeee" stroke="none" font-family="Arial" font-size="24px" font-style="normal" font-weight="normal" text-decoration="none" x="200" y="90">UNREGISTERED</text><text fill="#eeeeee" stroke="none" font-family="Arial" font-size="24px" font-style="normal" font-weight="normal" text-decoration="none" x="200" y="120">UNREGISTERED</text><text fill="#eeeeee" stroke="none" font-family="Arial" font-size="24px" font-style="normal" font-weight="normal" text-decoration="none" x="200" y="150">UNREGISTERED</text><text fill="#eeeeee" stroke="none" font-family="Arial" font-size="24px" font-style="normal" font-weight="normal" text-decoration="none" x="200" y="180">UNREGISTERED</text><text fill="#eeeeee" stroke="none" font-family="Arial" font-size="24px" font-style="normal" font-weight="normal" text-decoration="none" x="200" y="210">UNREGISTERED</text><text fill="#eeeeee" stroke="none" font-family="Arial" font-size="24px" font-style="normal" font-weight="normal" text-decoration="none" x="200" y="240">UNREGISTERED</text><text fill="#eeeeee" stroke="none" font-family="Arial" font-size="24px" font-style="normal" font-weight="normal" text-decoration="none" x="200" y="270">UNREGISTERED</text><text fill="#eeeeee" stroke="none" font-family="Arial" font-size="24px" font-style="normal" font-weight="normal" text-decoration="none" x="200" y="300">UNREGISTERED</text><text fill="#eeeeee" stroke="none" font-family="Arial" font-size="24px" font-style="normal" font-weight="normal" text-decoration="none" x="200" y="330">UNREGISTERED</text><text fill="#eeeeee" stroke="none" font-family="Arial" font-size="24px" font-style="normal" font-weight="normal" text-decoration="none" x="200" y="360">UNREGISTERED</text><text fill="#eeeeee" stroke="none" font-family="Arial" font-size="24px" font-style="normal" font-weight="normal" text-decoration="none" x="200" y="390">UNREGISTERED</text><text fill="#eeeeee" stroke="none" font-family="Arial" font-size="24px" font-style="normal" font-weight="normal" text-decoration="none" x="400" y="0">UNREGISTERED</text><text fill="#eeeeee" stroke="none" font-family="Arial" font-size="24px" font-style="normal" font-weight="normal" text-decoration="none" x="400" y="30">UNREGISTERED</text><text fill="#eeeeee" stroke="none" font-family="Arial" font-size="24px" font-style="normal" font-weight="normal" text-decoration="none" x="400" y="60">UNREGISTERED</text><text fill="#eeeeee" stroke="none" font-family="Arial" font-size="24px" font-style="normal" font-weight="normal" text-decoration="none" x="400" y="90">UNREGISTERED</text><text fill="#eeeeee" stroke="none" font-family="Arial" font-size="24px" font-style="normal" font-weight="normal" text-decoration="none" x="400" y="120">UNREGISTERED</text><text fill="#eeeeee" stroke="none" font-family="Arial" font-size="24px" font-style="normal" font-weight="normal" text-decoration="none" x="400" y="150">UNREGISTERED</text><text fill="#eeeeee" stroke="none" font-family="Arial" font-size="24px" font-style="normal" font-weight="normal" text-decoration="none" x="400" y="180">UNREGISTERED</text><text fill="#eeeeee" stroke="none" font-family="Arial" font-size="24px" font-style="normal" font-weight="normal" text-decoration="none" x="400" y="210">UNREGISTERED</text><text fill="#eeeeee" stroke="none" font-family="Arial" font-size="24px" font-style="normal" font-weight="normal" text-decoration="none" x="400" y="240">UNREGISTERED</text><text fill="#eeeeee" stroke="none" font-family="Arial" font-size="24px" font-style="normal" font-weight="normal" text-decoration="none" x="400" y="270">UNREGISTERED</text><text fill="#eeeeee" stroke="none" font-family="Arial" font-size="24px" font-style="normal" font-weight="normal" text-decoration="none" x="400" y="300">UNREGISTERED</text><text fill="#eeeeee" stroke="none" font-family="Arial" font-size="24px" font-style="normal" font-weight="normal" text-decoration="none" x="400" y="330">UNREGISTERED</text><text fill="#eeeeee" stroke="none" font-family="Arial" font-size="24px" font-style="normal" font-weight="normal" text-decoration="none" x="400" y="360">UNREGISTERED</text><text fill="#eeeeee" stroke="none" font-family="Arial" font-size="24px" font-style="normal" font-weight="normal" text-decoration="none" x="400" y="390">UNREGISTERED</text><text fill="#eeeeee" stroke="none" font-family="Arial" font-size="24px" font-style="normal" font-weight="normal" text-decoration="none" x="600" y="0">UNREGISTERED</text><text fill="#eeeeee" stroke="none" font-family="Arial" font-size="24px" font-style="normal" font-weight="normal" text-decoration="none" x="600" y="30">UNREGISTERED</text><text fill="#eeeeee" stroke="none" font-family="Arial" font-size="24px" font-style="normal" font-weight="normal" text-decoration="none" x="600" y="60">UNREGISTERED</text><text fill="#eeeeee" stroke="none" font-family="Arial" font-size="24px" font-style="normal" font-weight="normal" text-decoration="none" x="600" y="90">UNREGISTERED</text><text fill="#eeeeee" stroke="none" font-family="Arial" font-size="24px" font-style="normal" font-weight="normal" text-decoration="none" x="600" y="120">UNREGISTERED</text><text fill="#eeeeee" stroke="none" font-family="Arial" font-size="24px" font-style="normal" font-weight="normal" text-decoration="none" x="600" y="150">UNREGISTERED</text><text fill="#eeeeee" stroke="none" font-family="Arial" font-size="24px" font-style="normal" font-weight="normal" text-decoration="none" x="600" y="180">UNREGISTERED</text><text fill="#eeeeee" stroke="none" font-family="Arial" font-size="24px" font-style="normal" font-weight="normal" text-decoration="none" x="600" y="210">UNREGISTERED</text><text fill="#eeeeee" stroke="none" font-family="Arial" font-size="24px" font-style="normal" font-weight="normal" text-decoration="none" x="600" y="240">UNREGISTERED</text><text fill="#eeeeee" stroke="none" font-family="Arial" font-size="24px" font-style="normal" font-weight="normal" text-decoration="none" x="600" y="270">UNREGISTERED</text><text fill="#eeeeee" stroke="none" font-family="Arial" font-size="24px" font-style="normal" font-weight="normal" text-decoration="none" x="600" y="300">UNREGISTERED</text><text fill="#eeeeee" stroke="none" font-family="Arial" font-size="24px" font-style="normal" font-weight="normal" text-decoration="none" x="600" y="330">UNREGISTERED</text><text fill="#eeeeee" stroke="none" font-family="Arial" font-size="24px" font-style="normal" font-weight="normal" text-decoration="none" x="600" y="360">UNREGISTERED</text><text fill="#eeeeee" stroke="none" font-family="Arial" font-size="24px" font-style="normal" font-weight="normal" text-decoration="none" x="600" y="390">UNREGISTERED</text><g transform="translate(-38,-14) scale(1,1)"><rect fill="#C0C0C0" stroke="none" x="423" y="159" width="287" height="200" opacity="0.2"/></g><g transform="translate(-38,-14) scale(1,1)"><rect fill="#ffffff" stroke="none" x="416" y="152" width="287" height="200"/></g><g transform="translate(-38,-14) scale(1,1)"><path fill="none" stroke="#000000" d="M 416 152 L 703 152 L 703 352 L 416 352 L 416 152 Z Z" stroke-miterlimit="10"/></g><g transform="translate(-38,-14) scale(1,1)"><path fill="none" stroke="#000000" d="M 416 175 L 703 175" stroke-miterlimit="10"/></g><g transform="translate(-38,-14) scale(1,1)"><path fill="none" stroke="#000000" d="M 444.05908203125 175 L 444.05908203125 352" stroke-miterlimit="10"/></g><g transform="translate(-38,-14) scale(1,1)"><path fill="none" stroke="#000000" d="M 587.734375 175 L 587.734375 352" stroke-miterlimit="10"/></g><g transform="translate(-38,-14) scale(1,1)"><g><path fill="none" stroke="none"/><text fill="#000000" stroke="none" font-family="Arial" font-size="13px" font-style="normal" font-weight="bold" text-decoration="none" x="543.9736328125" y="169.5">QUIZ</text></g></g><g transform="translate(-38,-14) scale(1,1)"><g><path fill="none" stroke="none"/><text fill="#000000" stroke="none" font-family="Arial" font-size="13px" font-style="normal" font-weight="normal" text-decoration="none" x="421" y="193">PK</text></g></g><g transform="translate(-38,-14) scale(1,1)"><g><path fill="none" stroke="none"/><text fill="#000000" stroke="none" font-family="Arial" font-size="13px" font-style="normal" font-weight="normal" text-decoration="none" x="449.05908203125" y="193">Id_Quiz</text></g></g><g transform="translate(-38,-14) scale(1,1)"><g><path fill="none" stroke="none"/><text fill="#000000" stroke="none" font-family="Arial" font-size="13px" font-style="normal" font-weight="normal" text-decoration="none" x="592.734375" y="193">uuid</text></g></g><g transform="translate(-38,-14) scale(1,1)"><g><path fill="none" stroke="none"/><text fill="#000000" stroke="none" font-family="Arial" font-size="13px" font-style="normal" font-weight="normal" text-decoration="none" x="421" y="192.5"></text></g></g><g transform="translate(-38,-14) scale(1,1)"><g><path fill="none" stroke="none"/><text fill="#000000" stroke="none" font-family="Arial" font-size="13px" font-style="normal" font-weight="normal" text-decoration="none" x="421" y="208">FK</text></g></g><g transform="translate(-38,-14) scale(1,1)"><g><path fill="none" stroke="none"/><text fill="#000000" stroke="none" font-family="Arial" font-size="13px" font-style="normal" font-weight="normal" text-decoration="none" x="449.05908203125" y="208">Id_Estudio</text></g></g><g transform="translate(-38,-14) scale(1,1)"><g><path fill="none" stroke="none"/><text fill="#000000" stroke="none" font-family="Arial" font-size="13px" font-style="normal" font-weight="normal" text-decoration="none" x="592.734375" y="208">uuid</text></g></g><g transform="translate(-38,-14) scale(1,1)"><g><path fill="none" stroke="none"/><text fill="#000000" stroke="none" font-family="Arial" font-size="13px" font-style="normal" font-weight="normal" text-decoration="none" x="421" y="207.5"></text></g></g><g transform="translate(-38,-14) scale(1,1)"><g><path fill="none" stroke="none"/><text fill="#000000" stroke="none" font-family="Arial" font-size="13px" font-style="normal" font-weight="normal" text-decoration="none" x="421" y="223"></text></g></g><g transform="translate(-38,-14) scale(1,1)"><g><path fill="none" stroke="none"/><text fill="#000000" stroke="none" font-family="Arial" font-size="13px" font-style="normal" font-weight="normal" text-decoration="none" x="449.05908203125" y="223">NombreQUIZ</text></g></g><g transform="translate(-38,-14) scale(1,1)"><g><path fill="none" stroke="none"/><text fill="#000000" stroke="none" font-family="Arial" font-size="13px" font-style="normal" font-weight="normal" text-decoration="none" x="592.734375" y="223">VARCHAR(255)</text></g></g><g transform="translate(-38,-14) scale(1,1)"><g><path fill="none" stroke="none"/><text fill="#000000" stroke="none" font-family="Arial" font-size="13px" font-style="normal" font-weight="normal" text-decoration="none" x="421" y="222.5"></text></g></g><g transform="translate(-38,-14) scale(1,1)"><g><path fill="none" stroke="none"/><text fill="#000000" stroke="none" font-family="Arial" font-size="13px" font-style="normal" font-weight="normal" text-decoration="none" x="421" y="238"></text></g></g><g transform="translate(-38,-14) scale(1,1)"><g><path fill="none" stroke="none"/><text fill="#000000" stroke="none" font-family="Arial" font-size="13px" font-style="normal" font-weight="normal" text-decoration="none" x="449.05908203125" y="238">Pregunta</text></g></g><g transform="translate(-38,-14) scale(1,1)"><g><path fill="none" stroke="none"/><text fill="#000000" stroke="none" font-family="Arial" font-size="13px" font-style="normal" font-weight="normal" text-decoration="none" x="592.734375" y="238">TEXT</text></g></g><g transform="translate(-38,-14) scale(1,1)"><g><path fill="none" stroke="none"/><text fill="#000000" stroke="none" font-family="Arial" font-size="13px" font-style="normal" font-weight="normal" text-decoration="none" x="421" y="237.5"></text></g></g><g transform="translate(-38,-14) scale(1,1)"><g><path fill="none" stroke="none"/><text fill="#000000" stroke="none" font-family="Arial" font-size="13px" font-style="normal" font-weight="normal" text-decoration="none" x="421" y="253"></text></g></g><g transform="translate(-38,-14) scale(1,1)"><g><path fill="none" stroke="none"/><text fill="#000000" stroke="none" font-family="Arial" font-size="13px" font-style="normal" font-weight="normal" text-decoration="none" x="449.05908203125" y="253">Respuesta1_Correcta</text></g></g><g transform="translate(-38,-14) scale(1,1)"><g><path fill="none" stroke="none"/><text fill="#000000" stroke="none" font-family="Arial" font-size="13px" font-style="normal" font-weight="normal" text-decoration="none" x="592.734375" y="253">TEXT</text></g></g><g transform="translate(-38,-14) scale(1,1)"><g><path fill="none" stroke="none"/><text fill="#000000" stroke="none" font-family="Arial" font-size="13px" font-style="normal" font-weight="normal" text-decoration="none" x="421" y="252.5"></text></g></g><g transform="translate(-38,-14) scale(1,1)"><g><path fill="none" stroke="none"/><text fill="#000000" stroke="none" font-family="Arial" font-size="13px" font-style="normal" font-weight="normal" text-decoration="none" x="421" y="268"></text></g></g><g transform="translate(-38,-14) scale(1,1)"><g><path fill="none" stroke="none"/><text fill="#000000" stroke="none" font-family="Arial" font-size="13px" font-style="normal" font-weight="normal" text-decoration="none" x="449.05908203125" y="268">Respuesta2</text></g></g><g transform="translate(-38,-14) scale(1,1)"><g><path fill="none" stroke="none"/><text fill="#000000" stroke="none" font-family="Arial" font-size="13px" font-style="normal" font-weight="normal" text-decoration="none" x="592.734375" y="268">TEXT</text></g></g><g transform="translate(-38,-14) scale(1,1)"><g><path fill="none" stroke="none"/><text fill="#000000" stroke="none" font-family="Arial" font-size="13px" font-style="normal" font-weight="normal" text-decoration="none" x="421" y="267.5"></text></g></g><g transform="translate(-38,-14) scale(1,1)"><g><path fill="none" stroke="none"/><text fill="#000000" stroke="none" font-family="Arial" font-size="13px" font-style="normal" font-weight="normal" text-decoration="none" x="421" y="283"></text></g></g><g transform="translate(-38,-14) scale(1,1)"><g><path fill="none" stroke="none"/><text fill="#000000" stroke="none" font-family="Arial" font-size="13px" font-style="normal" font-weight="normal" text-decoration="none" x="449.05908203125" y="283">Respuesta3</text></g></g><g transform="translate(-38,-14) scale(1,1)"><g><path fill="none" stroke="none"/><text fill="#000000" stroke="none" font-family="Arial" font-size="13px" font-style="normal" font-weight="normal" text-decoration="none" x="592.734375" y="283">TEXT</text></g></g><g transform="translate(-38,-14) scale(1,1)"><g><path fill="none" stroke="none"/><text fill="#000000" stroke="none" font-family="Arial" font-size="13px" font-style="normal" font-weight="normal" text-decoration="none" x="421" y="282.5"></text></g></g><g transform="translate(-38,-14) scale(1,1)"><g><path fill="none" stroke="none"/><text fill="#000000" stroke="none" font-family="Arial" font-size="13px" font-style="normal" font-weight="normal" text-decoration="none" x="421" y="298">FK</text></g></g><g transform="translate(-38,-14) scale(1,1)"><g><path fill="none" stroke="none"/><text fill="#000000" stroke="none" font-family="Arial" font-size="13px" font-style="normal" font-weight="normal" text-decoration="none" x="449.05908203125" y="298">Id_Client</text></g></g><g transform="translate(-38,-14) scale(1,1)"><g><path fill="none" stroke="none"/><text fill="#000000" stroke="none" font-family="Arial" font-size="13px" font-style="normal" font-weight="normal" text-decoration="none" x="592.734375" y="298"></text></g></g><g transform="translate(-38,-14) scale(1,1)"><g><path fill="none" stroke="none"/><text fill="#000000" stroke="none" font-family="Arial" font-size="13px" font-style="normal" font-weight="normal" text-decoration="none" x="421" y="297.5"></text></g></g><g transform="translate(-38,-14) scale(1,1)"><rect fill="#C0C0C0" stroke="none" x="55" y="319" width="304" height="105" opacity="0.2"/></g><g transform="translate(-38,-14) scale(1,1)"><rect fill="#ffffff" stroke="none" x="48" y="312" width="304" height="105"/></g><g transform="translate(-38,-14) scale(1,1)"><path fill="none" stroke="#000000" d="M 48 312 L 352 312 L 352 417 L 48 417 L 48 312 Z Z" stroke-miterlimit="10"/></g><g transform="translate(-38,-14) scale(1,1)"><path fill="none" stroke="#000000" d="M 48 335 L 352 335" stroke-miterlimit="10"/></g><g transform="translate(-38,-14) scale(1,1)"><path fill="none" stroke="#000000" d="M 76.05908203125 335 L 76.05908203125 417" stroke-miterlimit="10"/></g><g transform="translate(-38,-14) scale(1,1)"><path fill="none" stroke="#000000" d="M 145.3017578125 335 L 145.3017578125 417" stroke-miterlimit="10"/></g><g transform="translate(-38,-14) scale(1,1)"><g><path fill="none" stroke="none"/><text fill="#000000" stroke="none" font-family="Arial" font-size="13px" font-style="normal" font-weight="bold" text-decoration="none" x="176.516845703125" y="329.5">Clientes</text></g></g><g transform="translate(-38,-14) scale(1,1)"><g><path fill="none" stroke="none"/><text fill="#000000" stroke="none" font-family="Arial" font-size="13px" font-style="normal" font-weight="normal" text-decoration="none" x="53" y="353">PK</text></g></g><g transform="translate(-38,-14) scale(1,1)"><g><path fill="none" stroke="none"/><text fill="#000000" stroke="none" font-family="Arial" font-size="13px" font-style="normal" font-weight="normal" text-decoration="none" x="81.05908203125" y="353">Id_Client</text></g></g><g transform="translate(-38,-14) scale(1,1)"><g><path fill="none" stroke="none"/><text fill="#000000" stroke="none" font-family="Arial" font-size="13px" font-style="normal" font-weight="normal" text-decoration="none" x="150.3017578125" y="353">uuid</text></g></g><g transform="translate(-38,-14) scale(1,1)"><g><path fill="none" stroke="none"/><text fill="#000000" stroke="none" font-family="Arial" font-size="13px" font-style="normal" font-weight="normal" text-decoration="none" x="53" y="352.5"></text></g></g><g transform="translate(-38,-14) scale(1,1)"><g><path fill="none" stroke="none"/><text fill="#000000" stroke="none" font-family="Arial" font-size="13px" font-style="normal" font-weight="normal" text-decoration="none" x="53" y="368"></text></g></g><g transform="translate(-38,-14) scale(1,1)"><g><path fill="none" stroke="none"/><text fill="#000000" stroke="none" font-family="Arial" font-size="13px" font-style="normal" font-weight="normal" text-decoration="none" x="81.05908203125" y="368">Nombre</text></g></g><g transform="translate(-38,-14) scale(1,1)"><g><path fill="none" stroke="none"/><text fill="#000000" stroke="none" font-family="Arial" font-size="13px" font-style="normal" font-weight="normal" text-decoration="none" x="150.3017578125" y="368">VARCHAR(255)</text></g></g><g transform="translate(-38,-14) scale(1,1)"><g><path fill="none" stroke="none"/><text fill="#000000" stroke="none" font-family="Arial" font-size="13px" font-style="normal" font-weight="normal" text-decoration="none" x="53" y="367.5"></text></g></g><g transform="translate(-38,-14) scale(1,1)"><g><path fill="none" stroke="none"/><text fill="#000000" stroke="none" font-family="Arial" font-size="13px" font-style="normal" font-weight="normal" text-decoration="none" x="53" y="383"></text></g></g><g transform="translate(-38,-14) scale(1,1)"><g><path fill="none" stroke="none"/><text fill="#000000" stroke="none" font-family="Arial" font-size="13px" font-style="normal" font-weight="normal" text-decoration="none" x="81.05908203125" y="383">Comuna</text></g></g><g transform="translate(-38,-14) scale(1,1)"><g><path fill="none" stroke="none"/><text fill="#000000" stroke="none" font-family="Arial" font-size="13px" font-style="normal" font-weight="normal" text-decoration="none" x="150.3017578125" y="383">VARCHAR(100)</text></g></g><g transform="translate(-38,-14) scale(1,1)"><g><path fill="none" stroke="none"/><text fill="#000000" stroke="none" font-family="Arial" font-size="13px" font-style="normal" font-weight="normal" text-decoration="none" x="53" y="382.5"></text></g></g><g transform="translate(-38,-14) scale(1,1)"><g><path fill="none" stroke="none"/><text fill="#000000" stroke="none" font-family="Arial" font-size="13px" font-style="normal" font-weight="normal" text-decoration="none" x="53" y="398"></text></g></g><g transform="translate(-38,-14) scale(1,1)"><g><path fill="none" stroke="none"/><text fill="#000000" stroke="none" font-family="Arial" font-size="13px" font-style="normal" font-weight="normal" text-decoration="none" x="81.05908203125" y="398">Region</text></g></g><g transform="translate(-38,-14) scale(1,1)"><g><path fill="none" stroke="none"/><text fill="#000000" stroke="none" font-family="Arial" font-size="13px" font-style="normal" font-weight="normal" text-decoration="none" x="150.3017578125" y="398">VARCHAR(100)</text></g></g><g transform="translate(-38,-14) scale(1,1)"><g><path fill="none" stroke="none"/><text fill="#000000" stroke="none" font-family="Arial" font-size="13px" font-style="normal" font-weight="normal" text-decoration="none" x="53" y="397.5"></text></g></g><g transform="translate(-38,-14) scale(1,1)"><g><path fill="none" stroke="none"/><text fill="#000000" stroke="none" font-family="Arial" font-size="13px" font-style="normal" font-weight="normal" text-decoration="none" x="53" y="413"></text></g></g><g transform="translate(-38,-14) scale(1,1)"><g><path fill="none" stroke="none"/><text fill="#000000" stroke="none" font-family="Arial" font-size="13px" font-style="normal" font-weight="normal" text-decoration="none" x="81.05908203125" y="413">Dirección</text></g></g><g transform="translate(-38,-14) scale(1,1)"><g><path fill="none" stroke="none"/><text fill="#000000" stroke="none" font-family="Arial" font-size="13px" font-style="normal" font-weight="normal" text-decoration="none" x="150.3017578125" y="413">VARCHAR(255)</text></g></g><g transform="translate(-38,-14) scale(1,1)"><g><path fill="none" stroke="none"/><text fill="#000000" stroke="none" font-family="Arial" font-size="13px" font-style="normal" font-weight="normal" text-decoration="none" x="53" y="412.5"></text></g></g><g transform="translate(-38,-14) scale(1,1)"><path fill="none" stroke="#000000" d="M 352 316 L 416 316" stroke-miterlimit="10"/></g><g transform="translate(-38,-14) scale(1,1)"><path fill="none" stroke="#000000" d="M 402 316 L 416 323" stroke-miterlimit="10"/></g><g transform="translate(-38,-14) scale(1,1)"><path fill="none" stroke="#000000" d="M 402 316 L 416 309" stroke-miterlimit="10"/></g><g transform="translate(-38,-14) scale(1,1)"><path fill="#FFFFFF" stroke="none" d="M 387 316 C 387 312.1340064 390.1340064 309 394 309 C 397.8659936 309 401 312.1340064 401 316 C 401 319.8659936 397.8659936 323 394 323 C 390.1340064 323 387 319.8659936 387 316 Z"/></g><g transform="translate(-38,-14) scale(1,1)"><path fill="none" stroke="#000000" d="M 387 316 C 387 312.1340064 390.1340064 309 394 309 C 397.8659936 309 401 312.1340064 401 316 C 401 319.8659936 397.8659936 323 394 323 C 390.1340064 323 387 319.8659936 387 316 Z" stroke-miterlimit="10"/></g><g transform="translate(-38,-14) scale(1,1)"><path fill="none" stroke="#000000" d="M 359 309 L 359 323" stroke-miterlimit="10"/></g><g transform="translate(-38,-14) scale(1,1)"><path fill="none" stroke="#000000" d="M 366 309 L 366 323" stroke-miterlimit="10"/></g><g transform="translate(-38,-14) scale(1,1)"><g><path fill="none" stroke="none"/><text fill="#000000" stroke="none" font-family="Arial" font-size="13px" font-style="normal" font-weight="normal" text-decoration="none" x="376.5" y="307.5"></text></g></g><g transform="translate(-38,-14) scale(1,1)"><g><path fill="none" stroke="none"/><text fill="#000000" stroke="none" font-family="Arial" font-size="13px" font-style="normal" font-weight="normal" text-decoration="none" x="389.5" y="307.5"></text></g></g><g transform="translate(-38,-14) scale(1,1)"><rect fill="#C0C0C0" stroke="none" x="71" y="167" width="239.67236328125" height="104" opacity="0.2"/></g><g transform="translate(-38,-14) scale(1,1)"><rect fill="#ffffff" stroke="none" x="64" y="160" width="239.67236328125" height="104"/></g><g transform="translate(-38,-14) scale(1,1)"><path fill="none" stroke="#000000" d="M 64 160 L 303.67236328125 160 L 303.67236328125 264 L 64 264 L 64 160 Z Z" stroke-miterlimit="10"/></g><g transform="translate(-38,-14) scale(1,1)"><path fill="none" stroke="#000000" d="M 64 183 L 303.67236328125 183" stroke-miterlimit="10"/></g><g transform="translate(-38,-14) scale(1,1)"><path fill="none" stroke="#000000" d="M 92.05908203125 183 L 92.05908203125 264" stroke-miterlimit="10"/></g><g transform="translate(-38,-14) scale(1,1)"><path fill="none" stroke="#000000" d="M 198.841796875 183 L 198.841796875 264" stroke-miterlimit="10"/></g><g transform="translate(-38,-14) scale(1,1)"><g><path fill="none" stroke="none"/><text fill="#000000" stroke="none" font-family="Arial" font-size="13px" font-style="normal" font-weight="bold" text-decoration="none" x="158.90576171875" y="177.5">Estudios</text></g></g><g transform="translate(-38,-14) scale(1,1)"><g><path fill="none" stroke="none"/><text fill="#000000" stroke="none" font-family="Arial" font-size="13px" font-style="normal" font-weight="normal" text-decoration="none" x="69" y="201">PK</text></g></g><g transform="translate(-38,-14) scale(1,1)"><g><path fill="none" stroke="none"/><text fill="#000000" stroke="none" font-family="Arial" font-size="13px" font-style="normal" font-weight="normal" text-decoration="none" x="97.05908203125" y="201">Id_Estudio</text></g></g><g transform="translate(-38,-14) scale(1,1)"><g><path fill="none" stroke="none"/><text fill="#000000" stroke="none" font-family="Arial" font-size="13px" font-style="normal" font-weight="normal" text-decoration="none" x="203.841796875" y="201">uuid</text></g></g><g transform="translate(-38,-14) scale(1,1)"><g><path fill="none" stroke="none"/><text fill="#000000" stroke="none" font-family="Arial" font-size="13px" font-style="normal" font-weight="normal" text-decoration="none" x="69" y="200.5"></text></g></g><g transform="translate(-38,-14) scale(1,1)"><g><path fill="none" stroke="none"/><text fill="#000000" stroke="none" font-family="Arial" font-size="13px" font-style="normal" font-weight="normal" text-decoration="none" x="69" y="216">FK</text></g></g><g transform="translate(-38,-14) scale(1,1)"><g><path fill="none" stroke="none"/><text fill="#000000" stroke="none" font-family="Arial" font-size="13px" font-style="normal" font-weight="normal" text-decoration="none" x="97.05908203125" y="216">Id_Variable</text></g></g><g transform="translate(-38,-14) scale(1,1)"><g><path fill="none" stroke="none"/><text fill="#000000" stroke="none" font-family="Arial" font-size="13px" font-style="normal" font-weight="normal" text-decoration="none" x="203.841796875" y="216"></text></g></g><g transform="translate(-38,-14) scale(1,1)"><g><path fill="none" stroke="none"/><text fill="#000000" stroke="none" font-family="Arial" font-size="13px" font-style="normal" font-weight="normal" text-decoration="none" x="69" y="215.5"></text></g></g><g transform="translate(-38,-14) scale(1,1)"><g><path fill="none" stroke="none"/><text fill="#000000" stroke="none" font-family="Arial" font-size="13px" font-style="normal" font-weight="normal" text-decoration="none" x="69" y="231"></text></g></g><g transform="translate(-38,-14) scale(1,1)"><g><path fill="none" stroke="none"/><text fill="#000000" stroke="none" font-family="Arial" font-size="13px" font-style="normal" font-weight="normal" text-decoration="none" x="97.05908203125" y="231">NombreEstudio</text></g></g><g transform="translate(-38,-14) scale(1,1)"><g><path fill="none" stroke="none"/><text fill="#000000" stroke="none" font-family="Arial" font-size="13px" font-style="normal" font-weight="normal" text-decoration="none" x="203.841796875" y="231">VARCHAR(100)</text></g></g><g transform="translate(-38,-14) scale(1,1)"><g><path fill="none" stroke="none"/><text fill="#000000" stroke="none" font-family="Arial" font-size="13px" font-style="normal" font-weight="normal" text-decoration="none" x="69" y="230.5"></text></g></g><g transform="translate(-38,-14) scale(1,1)"><path fill="none" stroke="#000000" d="M 304 234 L 416 234" stroke-miterlimit="10"/></g><g transform="translate(-38,-14) scale(1,1)"><path fill="none" stroke="#000000" d="M 402 234 L 416 241" stroke-miterlimit="10"/></g><g transform="translate(-38,-14) scale(1,1)"><path fill="none" stroke="#000000" d="M 402 234 L 416 227" stroke-miterlimit="10"/></g><g transform="translate(-38,-14) scale(1,1)"><path fill="#FFFFFF" stroke="none" d="M 387 234 C 387 230.1340064 390.1340064 227 394 227 C 397.8659936 227 401 230.1340064 401 234 C 401 237.8659936 397.8659936 241 394 241 C 390.1340064 241 387 237.8659936 387 234 Z"/></g><g transform="translate(-38,-14) scale(1,1)"><path fill="none" stroke="#000000" d="M 387 234 C 387 230.1340064 390.1340064 227 394 227 C 397.8659936 227 401 230.1340064 401 234 C 401 237.8659936 397.8659936 241 394 241 C 390.1340064 241 387 237.8659936 387 234 Z" stroke-miterlimit="10"/></g><g transform="translate(-38,-14) scale(1,1)"><path fill="none" stroke="#000000" d="M 311 227 L 311 241" stroke-miterlimit="10"/></g><g transform="translate(-38,-14) scale(1,1)"><path fill="none" stroke="#000000" d="M 318 227 L 318 241" stroke-miterlimit="10"/></g><g transform="translate(-38,-14) scale(1,1)"><g><path fill="none" stroke="none"/><text fill="#000000" stroke="none" font-family="Arial" font-size="13px" font-style="normal" font-weight="normal" text-decoration="none" x="328.5" y="225.5"></text></g></g><g transform="translate(-38,-14) scale(1,1)"><g><path fill="none" stroke="none"/><text fill="#000000" stroke="none" font-family="Arial" font-size="13px" font-style="normal" font-weight="normal" text-decoration="none" x="389.5" y="225.5"></text></g></g><g transform="translate(-38,-14) scale(1,1)"><path fill="#ffff49" stroke="none" d="M 408 24 L 580 24 L 590 34 L 590 70 L 408 70 L 408 24"/></g><g transform="translate(-38,-14) scale(1,1)"><path fill="none" stroke="#000000" d="M 408 24 L 580 24 L 590 34 L 590 70 L 408 70 L 408 24 L 408 24" stroke-miterlimit="10"/></g><g transform="translate(-38,-14) scale(1,1)"><path fill="none" stroke="#000000" d="M 580 24 L 580 34 L 590 34 L 580 24" stroke-miterlimit="10"/></g><g transform="translate(-38,-14) scale(1,1)"><g><path fill="none" stroke="none"/><text fill="#000000" stroke="none" font-family="Arial" font-size="20px" font-style="normal" font-weight="normal" text-decoration="none" x="475.61328125" y="57">QUIZ</text></g></g></g></svg>