<svg version="1.1" xmlns="http://www.w3.org/2000/svg" xmlns:xlink="http://www.w3.org/1999/xlink" width="720.29052734375" height="422"><defs/><g><text fill="#eeeeee" stroke="none" font-family="Arial" font-size="24px" font-style="normal" font-weight="normal" text-decoration="none" x="0" y="0">UNREGISTERED</text><text fill="#eeeeee" stroke="none" font-family="Arial" font-size="24px" font-style="normal" font-weight="normal" text-decoration="none" x="0" y="30">UNREGISTERED</text><text fill="#eeeeee" stroke="none" font-family="Arial" font-size="24px" font-style="normal" font-weight="normal" text-decoration="none" x="0" y="60">UNREGISTERED</text><text fill="#eeeeee" stroke="none" font-family="Arial" font-size="24px" font-style="normal" font-weight="normal" text-decoration="none" x="0" y="90">UNREGISTERED</text><text fill="#eeeeee" stroke="none" font-family="Arial" font-size="24px" font-style="normal" font-weight="normal" text-decoration="none" x="0" y="120">UNREGISTERED</text><text fill="#eeeeee" stroke="none" font-family="Arial" font-size="24px" font-style="normal" font-weight="normal" text-decoration="none" x="0" y="150">UNREGISTERED</text><text fill="#eeeeee" stroke="none" font-family="Arial" font-size="24px" font-style="normal" font-weight="normal" text-decoration="none" x="0" y="180">UNREGISTERED</text><text fill="#eeeeee" stroke="none" font-family="Arial" font-size="24px" font-style="normal" font-weight="normal" text-decoration="none" x="0" y="210">UNREGISTERED</text><text fill="#eeeeee" stroke="none" font-family="Arial" font-size="24px" font-style="normal" font-weight="normal" text-decoration="none" x="0" y="240">UNREGISTERED</text><text fill="#eeeeee" stroke="none" font-family="Arial" font-size="24px" font-style="normal" font-weight="normal" text-decoration="none" x="0" y="270">UNREGISTERED</text><text fill="#eeeeee" stroke="none" font-family="Arial" font-size="24px" font-style="normal" font-weight="normal" text-decoration="none" x="0" y="300">UNREGISTERED</text><text fill="#eeeeee" stroke="none" font-family="Arial" font-size="24px" font-style="normal" font-weight="normal" text-decoration="none" x="0" y="330">UNREGISTERED</text><text fill="#eeeeee" stroke="none" font-family="Arial" font-size="24px" font-style="normal" font-weight="normal" text-decoration="none" x="0" y="360">UNREGISTERED</text><text fill="#eeeeee" stroke="none" font-family="Arial" font-size="24px" font-style="normal" font-weight="normal" text-decoration="none" x="0" y="390">UNREGISTERED</text><text fill="#eeeeee" stroke="none" font-family="Arial" font-size="24px" font-style="normal" font-weight="normal" text-decoration="none" x="0" y="420">UNREGISTERED</text><text fill="#eeeeee" stroke="none" font-family="Arial" font-size="24px" font-style="normal" font-weight="normal" text-decoration="none" x="200" y="0">UNREGISTERED</text><text fill="#eeeeee" stroke="none" font-family="Arial" font-size="24px" font-style="normal" font-weight="normal" text-decoration="none" x="200" y="30">UNREGISTERED</text><text fill="#eeeeee" stroke="none" font-family="Arial" font-size="24px" font-style="normal" font-weight="normal" text-decoration="none" x="200" y="60">UNREGISTERED</text><text fill="#eeeeee" stroke="none" font-family="Arial" font-size="24px" font-style="normal" font-weight="normal" text-decoration="none" x="200" y="90">UNREGISTERED</text><text fill="#eeeeee" stroke="none" font-family="Arial" font-size="24px" font-style="normal" font-weight="normal" text-decoration="none" x="200" y="120">UNREGISTERED</text><text fill="#eeeeee" stroke="none" font-family="Arial" font-size="24px" font-style="normal" font-weight="normal" text-decoration="none" x="200" y="150">UNREGISTERED</text><text fill="#eeeeee" stroke="none" font-family="Arial" font-size="24px" font-style="normal" font-weight="normal" text-decoration="none" x="200" y="180">UNREGISTERED</text><text fill="#eeeeee" stroke="none" font-family="Arial" font-size="24px" font-style="normal" font-weight="normal" text-decoration="none" x="200" y="210">UNREGISTERED</text><text fill="#eeeeee" stroke="none" font-family="Arial" font-size="24px" font-style="normal" font-weight="normal" text-decoration="none" x="200" y="240">UNREGISTERED</text><text fill="#eeeeee" stroke="none" font-family="Arial" font-size="24px" font-style="normal" font-weight="normal" text-decoration="none" x="200" y="270">UNREGISTERED</text><text fill="#eeeeee" stroke="none" font-family="Arial" font-size="24px" font-style="normal" font-weight="normal" text-decoration="none" x="200" y="300">UNREGISTERED</text><text fill="#eeeeee" stroke="none" font-family="Arial" font-size="24px" font-style="normal" font-weight="normal" text-decoration="none" x="200" y="330">UNREGISTERED</text><text fill="#eeeeee" stroke="none" font-family="Arial" font-size="24px" font-style="normal" font-weight="normal" text-decoration="none" x="200" y="360">UNREGISTERED</text><text fill="#eeeeee" stroke="none" font-family="Arial" font-size="24px" font-style="normal" font-weight="normal" text-decoration="none" x="200" y="390">UNREGISTERED</text><text fill="#eeeeee" stroke="none" font-family="Arial" font-size="24px" font-style="normal" font-weight="normal" text-decoration="none" x="200" y="420">UNREGISTERED</text><text fill="#eeeeee" stroke="none" font-family="Arial" font-size="24px" font-style="normal" font-weight="normal" text-decoration="none" x="400" y="0">UNREGISTERED</text><text fill="#eeeeee" stroke="none" font-family="Arial" font-size="24px" font-style="normal" font-weight="normal" text-decoration="none" x="400" y="30">UNREGISTERED</text><text fill="#eeeeee" stroke="none" font-family="Arial" font-size="24px" font-style="normal" font-weight="normal" text-decoration="none" x="400" y="60">UNREGISTERED</text><text fill="#eeeeee" stroke="none" font-family="Arial" font-size="24px" font-style="normal" font-weight="normal" text-decoration="none" x="400" y="90">UNREGISTERED</text><text fill="#eeeeee" stroke="none" font-family="Arial" font-size="24px" font-style="normal" font-weight="normal" text-decoration="none" x="400" y="120">UNREGISTERED</text><text fill="#eeeeee" stroke="none" font-family="Arial" font-size="24px" font-style="normal" font-weight="normal" text-decoration="none" x="400" y="150">UNREGISTERED</text><text fill="#eeeeee" stroke="none" font-family="Arial" font-size="24px" font-style="normal" font-weight="normal" text-decoration="none" x="400" y="180">UNREGISTERED</text><text fill="#eeeeee" stroke="none" font-family="Arial" font-size="24px" font-style="normal" font-weight="normal" text-decoration="none" x="400" y="210">UNREGISTERED</text><text fill="#eeeeee" stroke="none" font-family="Arial" font-size="24px" font-style="normal" font-weight="normal" text-decoration="none" x="400" y="240">UNREGISTERED</text><text fill="#eeeeee" stroke="none" font-family="Arial" font-size="24px" font-style="normal" font-weight="normal" text-decoration="none" x="400" y="270">UNREGISTERED</text><text fill="#eeeeee" stroke="none" font-family="Arial" font-size="24px" font-style="normal" font-weight="normal" text-decoration="none" x="400" y="300">UNREGISTERED</text><text fill="#eeeeee" stroke="none" font-family="Arial" font-size="24px" font-style="normal" font-weight="normal" text-decoration="none" x="400" y="330">UNREGISTERED</text><text fill="#eeeeee" stroke="none" font-family="Arial" font-size="24px" font-style="normal" font-weight="normal" text-decoration="none" x="400" y="360">UNREGISTERED</text><text fill="#eeeeee" stroke="none" font-family="Arial" font-size="24px" font-style="normal" font-weight="normal" text-decoration="none" x="400" y="390">UNREGISTERED</text><text fill="#eeeeee" stroke="none" font-family="Arial" font-size="24px" font-style="normal" font-weight="normal" text-decoration="none" x="400" y="420">UNREGISTERED</text><text fill="#eeeeee" stroke="none" font-family="Arial" font-size="24px" font-style="normal" font-weight="normal" text-decoration="none" x="600" y="0">UNREGISTERED</text><text fill="#eeeeee" stroke="none" font-family="Arial" font-size="24px" font-style="normal" font-weight="normal" text-decoration="none" x="600" y="30">UNREGISTERED</text><text fill="#eeeeee" stroke="none" font-family="Arial" font-size="24px" font-style="normal" font-weight="normal" text-decoration="none" x="600" y="60">UNREGISTERED</text><text fill="#eeeeee" stroke="none" font-family="Arial" font-size="24px" font-style="normal" font-weight="normal" text-decoration="none" x="600" y="90">UNREGISTERED</text><text fill="#eeeeee" stroke="none" font-family="Arial" font-size="24px" font-style="normal" font-weight="normal" text-decoration="none" x="600" y="120">UNREGISTERED</text><text fill="#eeeeee" stroke="none" font-family="Arial" font-size="24px" font-style="normal" font-weight="normal" text-decoration="none" x="600" y="150">UNREGISTERED</text><text fill="#eeeeee" stroke="none" font-family="Arial" font-size="24px" font-style="normal" font-weight="normal" text-decoration="none" x="600" y="180">UNREGISTERED</text><text fill="#eeeeee" stroke="none" font-family="Arial" font-size="24px" font-style="normal" font-weight="normal" text-decoration="none" x="600" y="210">UNREGISTERED</text><text fill="#eeeeee" stroke="none" font-family="Arial" font-size="24px" font-style="normal" font-weight="normal" text-decoration="none" x="600" y="240">UNREGISTERED</text><text fill="#eeeeee" stroke="none" font-family="Arial" font-size="24px" font-style="normal" font-weight="normal" text-decoration="none" x="600" y="270">UNREGISTERED</text><text fill="#eeeeee" stroke="none" font-family="Arial" font-size="24px" font-style="normal" font-weight="normal" text-decoration="none" x="600" y="300">UNREGISTERED</text><text fill="#eeeeee" stroke="none" font-family="Arial" font-size="24px" font-style="normal" font-weight="normal" text-decoration="none" x="600" y="330">UNREGISTERED</text><text fill="#eeeeee" stroke="none" font-family="Arial" font-size="24px" font-style="normal" font-weight="normal" text-decoration="none" x="600" y="360">UNREGISTERED</text><text fill="#eeeeee" stroke="none" font-family="Arial" font-size="24px" font-style="normal" font-weight="normal" text-decoration="none" x="600" y="390">UNREGISTERED</text><text fill="#eeeeee" stroke="none" font-family="Arial" font-size="24px" font-style="normal" font-weight="normal" text-decoration="none" x="600" y="420">UNREGISTERED</text><g transform="translate(-230,-22) scale(1,1)"><rect fill="#C0C0C0" stroke="none" x="247" y="191" width="306.1259765625" height="93" opacity="0.2"/></g><g transform="translate(-230,-22) scale(1,1)"><rect fill="#e9dfdf" stroke="none" x="240" y="184" width="306.1259765625" height="93"/></g><g transform="translate(-230,-22) scale(1,1)"><path fill="none" stroke="#000000" d="M 240 184 L 546.1259765625 184 L 546.1259765625 277 L 240 277 L 240 184 Z Z" stroke-miterlimit="10"/></g><g transform="translate(-230,-22) scale(1,1)"><path fill="none" stroke="#000000" d="M 240 207 L 546.1259765625 207" stroke-miterlimit="10"/></g><g transform="translate(-230,-22) scale(1,1)"><path fill="none" stroke="#000000" d="M 268.05908203125 207 L 268.05908203125 277" stroke-miterlimit="10"/></g><g transform="translate(-230,-22) scale(1,1)"><path fill="none" stroke="#000000" d="M 356.08447265625 207 L 356.08447265625 277" stroke-miterlimit="10"/></g><g transform="translate(-230,-22) scale(1,1)"><g><path fill="none" stroke="none"/><text fill="#000000" stroke="none" font-family="Arial" font-size="13px" font-style="normal" font-weight="bold" text-decoration="none" x="376.08935546875" y="201.5">Users</text></g></g><g transform="translate(-230,-22) scale(1,1)"><g><path fill="none" stroke="none"/><text fill="#000000" stroke="none" font-family="Arial" font-size="13px" font-style="normal" font-weight="normal" text-decoration="none" x="245" y="225">PK</text></g></g><g transform="translate(-230,-22) scale(1,1)"><g><path fill="none" stroke="none"/><text fill="#000000" stroke="none" font-family="Arial" font-size="13px" font-style="normal" font-weight="normal" text-decoration="none" x="273.05908203125" y="225">Id_user</text></g></g><g transform="translate(-230,-22) scale(1,1)"><g><path fill="none" stroke="none"/><text fill="#000000" stroke="none" font-family="Arial" font-size="13px" font-style="normal" font-weight="normal" text-decoration="none" x="361.08447265625" y="225">uuid</text></g></g><g transform="translate(-230,-22) scale(1,1)"><g><path fill="none" stroke="none"/><text fill="#000000" stroke="none" font-family="Arial" font-size="13px" font-style="normal" font-weight="normal" text-decoration="none" x="245" y="224.5"></text></g></g><g transform="translate(-230,-22) scale(1,1)"><g><path fill="none" stroke="none"/><text fill="#000000" stroke="none" font-family="Arial" font-size="13px" font-style="normal" font-weight="normal" text-decoration="none" x="245" y="240"></text></g></g><g transform="translate(-230,-22) scale(1,1)"><g><path fill="none" stroke="none"/><text fill="#000000" stroke="none" font-family="Arial" font-size="13px" font-style="normal" font-weight="normal" text-decoration="none" x="273.05908203125" y="240">Tipo</text></g></g><g transform="translate(-230,-22) scale(1,1)"><g><path fill="none" stroke="none"/><text fill="#000000" stroke="none" font-family="Arial" font-size="13px" font-style="normal" font-weight="normal" text-decoration="none" x="361.08447265625" y="240">INTEGER</text></g></g><g transform="translate(-230,-22) scale(1,1)"><g><path fill="none" stroke="none"/><text fill="#000000" stroke="none" font-family="Arial" font-size="13px" font-style="normal" font-weight="normal" text-decoration="none" x="245" y="239.5"></text></g></g><g transform="translate(-230,-22) scale(1,1)"><g><path fill="none" stroke="none"/><text fill="#000000" stroke="none" font-family="Arial" font-size="13px" font-style="normal" font-weight="normal" text-decoration="none" x="245" y="255"></text></g></g><g transform="translate(-230,-22) scale(1,1)"><g><path fill="none" stroke="none"/><text fill="#000000" stroke="none" font-family="Arial" font-size="13px" font-style="normal" font-weight="normal" text-decoration="none" x="273.05908203125" y="255">NombreUser</text></g></g><g transform="translate(-230,-22) scale(1,1)"><g><path fill="none" stroke="none"/><text fill="#000000" stroke="none" font-family="Arial" font-size="13px" font-style="normal" font-weight="normal" text-decoration="none" x="361.08447265625" y="255">VARCHAR(255)</text></g></g><g transform="translate(-230,-22) scale(1,1)"><g><path fill="none" stroke="none"/><text fill="#000000" stroke="none" font-family="Arial" font-size="13px" font-style="normal" font-weight="normal" text-decoration="none" x="245" y="254.5"></text></g></g><g transform="translate(-230,-22) scale(1,1)"><g><path fill="none" stroke="none"/><text fill="#000000" stroke="none" font-family="Arial" font-size="13px" font-style="normal" font-weight="normal" text-decoration="none" x="245" y="270"></text></g></g><g transform="translate(-230,-22) scale(1,1)"><g><path fill="none" stroke="none"/><text fill="#000000" stroke="none" font-family="Arial" font-size="13px" font-style="normal" font-weight="normal" text-decoration="none" x="273.05908203125" y="270">currentGPS</text></g></g><g transform="translate(-230,-22) scale(1,1)"><g><path fill="none" stroke="none"/><text fill="#000000" stroke="none" font-family="Arial" font-size="13px" font-style="normal" font-weight="normal" text-decoration="none" x="361.08447265625" y="270">POINT</text></g></g><g transform="translate(-230,-22) scale(1,1)"><g><path fill="none" stroke="none"/><text fill="#000000" stroke="none" font-family="Arial" font-size="13px" font-style="normal" font-weight="normal" text-decoration="none" x="245" y="269.5"></text></g></g><g transform="translate(-230,-22) scale(1,1)"><rect fill="#C0C0C0" stroke="none" x="247" y="351" width="306.1259765625" height="90" opacity="0.2"/></g><g transform="translate(-230,-22) scale(1,1)"><rect fill="#e9dfdf" stroke="none" x="240" y="344" width="306.1259765625" height="90"/></g><g transform="translate(-230,-22) scale(1,1)"><path fill="none" stroke="#000000" d="M 240 344 L 546.1259765625 344 L 546.1259765625 434 L 240 434 L 240 344 Z Z" stroke-miterlimit="10"/></g><g transform="translate(-230,-22) scale(1,1)"><path fill="none" stroke="#000000" d="M 240 367 L 546.1259765625 367" stroke-miterlimit="10"/></g><g transform="translate(-230,-22) scale(1,1)"><path fill="none" stroke="#000000" d="M 268.05908203125 367 L 268.05908203125 434" stroke-miterlimit="10"/></g><g transform="translate(-230,-22) scale(1,1)"><path fill="none" stroke="#000000" d="M 364 367 L 364 434" stroke-miterlimit="10"/></g><g transform="translate(-230,-22) scale(1,1)"><g><path fill="none" stroke="none"/><text fill="#000000" stroke="none" font-family="Arial" font-size="13px" font-style="normal" font-weight="bold" text-decoration="none" x="376.07666015625" y="361.5">Photo</text></g></g><g transform="translate(-230,-22) scale(1,1)"><g><path fill="none" stroke="none"/><text fill="#000000" stroke="none" font-family="Arial" font-size="13px" font-style="normal" font-weight="normal" text-decoration="none" x="245" y="385">PK</text></g></g><g transform="translate(-230,-22) scale(1,1)"><g><path fill="none" stroke="none"/><text fill="#000000" stroke="none" font-family="Arial" font-size="13px" font-style="normal" font-weight="normal" text-decoration="none" x="273.05908203125" y="385">Id_Photo</text></g></g><g transform="translate(-230,-22) scale(1,1)"><g><path fill="none" stroke="none"/><text fill="#000000" stroke="none" font-family="Arial" font-size="13px" font-style="normal" font-weight="normal" text-decoration="none" x="369" y="385">uuid</text></g></g><g transform="translate(-230,-22) scale(1,1)"><g><path fill="none" stroke="none"/><text fill="#000000" stroke="none" font-family="Arial" font-size="13px" font-style="normal" font-weight="normal" text-decoration="none" x="245" y="384.5"></text></g></g><g transform="translate(-230,-22) scale(1,1)"><g><path fill="none" stroke="none"/><text fill="#000000" stroke="none" font-family="Arial" font-size="13px" font-style="normal" font-weight="normal" text-decoration="none" x="245" y="400"></text></g></g><g transform="translate(-230,-22) scale(1,1)"><g><path fill="none" stroke="none"/><text fill="#000000" stroke="none" font-family="Arial" font-size="13px" font-style="normal" font-weight="normal" text-decoration="none" x="273.05908203125" y="400">NombrePhoto</text></g></g><g transform="translate(-230,-22) scale(1,1)"><g><path fill="none" stroke="none"/><text fill="#000000" stroke="none" font-family="Arial" font-size="13px" font-style="normal" font-weight="normal" text-decoration="none" x="369" y="400">VARCHAR(100)</text></g></g><g transform="translate(-230,-22) scale(1,1)"><g><path fill="none" stroke="none"/><text fill="#000000" stroke="none" font-family="Arial" font-size="13px" font-style="normal" font-weight="normal" text-decoration="none" x="245" y="399.5"></text></g></g><g transform="translate(-230,-22) scale(1,1)"><g><path fill="none" stroke="none"/><text fill="#000000" stroke="none" font-family="Arial" font-size="13px" font-style="normal" font-weight="normal" text-decoration="none" x="245" y="415"></text></g></g><g transform="translate(-230,-22) scale(1,1)"><g><path fill="none" stroke="none"/><text fill="#000000" stroke="none" font-family="Arial" font-size="13px" font-style="normal" font-weight="normal" text-decoration="none" x="273.05908203125" y="415">Archivo</text></g></g><g transform="translate(-230,-22) scale(1,1)"><g><path fill="none" stroke="none"/><text fill="#000000" stroke="none" font-family="Arial" font-size="13px" font-style="normal" font-weight="normal" text-decoration="none" x="369" y="415">BLOB</text></g></g><g transform="translate(-230,-22) scale(1,1)"><g><path fill="none" stroke="none"/><text fill="#000000" stroke="none" font-family="Arial" font-size="13px" font-style="normal" font-weight="normal" text-decoration="none" x="245" y="414.5"></text></g></g><g transform="translate(-230,-22) scale(1,1)"><g><path fill="none" stroke="none"/><text fill="#000000" stroke="none" font-family="Arial" font-size="13px" font-style="normal" font-weight="normal" text-decoration="none" x="245" y="430"></text></g></g><g transform="translate(-230,-22) scale(1,1)"><g><path fill="none" stroke="none"/><text fill="#000000" stroke="none" font-family="Arial" font-size="13px" font-style="normal" font-weight="normal" text-decoration="none" x="273.05908203125" y="430">Categoría</text></g></g><g transform="translate(-230,-22) scale(1,1)"><g><path fill="none" stroke="none"/><text fill="#000000" stroke="none" font-family="Arial" font-size="13px" font-style="normal" font-weight="normal" text-decoration="none" x="369" y="430">VARCHAR(100)</text></g></g><g transform="translate(-230,-22) scale(1,1)"><g><path fill="none" stroke="none"/><text fill="#000000" stroke="none" font-family="Arial" font-size="13px" font-style="normal" font-weight="normal" text-decoration="none" x="245" y="429.5"></text></g></g><g transform="translate(-230,-22) scale(1,1)"><path fill="#ffff49" stroke="none" d="M 576 32 L 716.4189453125 32 L 726.4189453125 42 L 726.4189453125 108 L 576 108 L 576 32"/></g><g transform="translate(-230,-22) scale(1,1)"><path fill="none" stroke="#000000" d="M 576 32 L 716.4189453125 32 L 726.4189453125 42 L 726.4189453125 108 L 576 108 L 576 32 L 576 32" stroke-miterlimit="10"/></g><g transform="translate(-230,-22) scale(1,1)"><path fill="none" stroke="#000000" d="M 716.4189453125 32 L 716.4189453125 42 L 726.4189453125 42 L 716.4189453125 32" stroke-miterlimit="10"/></g><g transform="translate(-230,-22) scale(1,1)"><g><path fill="none" stroke="none"/><text fill="#000000" stroke="none" font-family="Arial" font-size="22px" font-style="normal" font-weight="normal" text-decoration="none" x="591.2041015625" y="59">ENTRENAR</text><text fill="#000000" stroke="none" font-family="Arial" font-size="22px" font-style="normal" font-weight="normal" text-decoration="none" x="644.37255859375" y="81">Y</text><text fill="#000000" stroke="none" font-family="Arial" font-size="22px" font-style="normal" font-weight="normal" text-decoration="none" x="585.5" y="103">CONSULTAR</text></g></g><g transform="translate(-230,-22) scale(1,1)"><rect fill="#C0C0C0" stroke="none" x="743" y="263" width="204.29052734375" height="105" opacity="0.2"/></g><g transform="translate(-230,-22) scale(1,1)"><rect fill="#ffffff" stroke="none" x="736" y="256" width="204.29052734375" height="105"/></g><g transform="translate(-230,-22) scale(1,1)"><path fill="none" stroke="#000000" d="M 736 256 L 940.29052734375 256 L 940.29052734375 361 L 736 361 L 736 256 Z Z" stroke-miterlimit="10"/></g><g transform="translate(-230,-22) scale(1,1)"><path fill="none" stroke="#000000" d="M 736 279 L 940.29052734375 279" stroke-miterlimit="10"/></g><g transform="translate(-230,-22) scale(1,1)"><path fill="none" stroke="#000000" d="M 763.3291015625 279 L 763.3291015625 361" stroke-miterlimit="10"/></g><g transform="translate(-230,-22) scale(1,1)"><path fill="none" stroke="#000000" d="M 836.9072265625 279 L 836.9072265625 361" stroke-miterlimit="10"/></g><g transform="translate(-230,-22) scale(1,1)"><g><path fill="none" stroke="none"/><text fill="#000000" stroke="none" font-family="Arial" font-size="13px" font-style="normal" font-weight="bold" text-decoration="none" x="770.0888671875" y="273.5">Photo_Training_Upload</text></g></g><g transform="translate(-230,-22) scale(1,1)"><g><path fill="none" stroke="none"/><text fill="#000000" stroke="none" font-family="Arial" font-size="13px" font-style="normal" font-weight="normal" text-decoration="none" x="741" y="297">FK</text></g></g><g transform="translate(-230,-22) scale(1,1)"><g><path fill="none" stroke="none"/><text fill="#000000" stroke="none" font-family="Arial" font-size="13px" font-style="normal" font-weight="normal" text-decoration="none" x="768.3291015625" y="297">Id_Photo</text></g></g><g transform="translate(-230,-22) scale(1,1)"><g><path fill="none" stroke="none"/><text fill="#000000" stroke="none" font-family="Arial" font-size="13px" font-style="normal" font-weight="normal" text-decoration="none" x="841.9072265625" y="297">uuid</text></g></g><g transform="translate(-230,-22) scale(1,1)"><g><path fill="none" stroke="none"/><text fill="#000000" stroke="none" font-family="Arial" font-size="13px" font-style="normal" font-weight="normal" text-decoration="none" x="741" y="296.5"></text></g></g><g transform="translate(-230,-22) scale(1,1)"><g><path fill="none" stroke="none"/><text fill="#000000" stroke="none" font-family="Arial" font-size="13px" font-style="normal" font-weight="normal" text-decoration="none" x="741" y="312">FK</text></g></g><g transform="translate(-230,-22) scale(1,1)"><g><path fill="none" stroke="none"/><text fill="#000000" stroke="none" font-family="Arial" font-size="13px" font-style="normal" font-weight="normal" text-decoration="none" x="768.3291015625" y="312">Id_User</text></g></g><g transform="translate(-230,-22) scale(1,1)"><g><path fill="none" stroke="none"/><text fill="#000000" stroke="none" font-family="Arial" font-size="13px" font-style="normal" font-weight="normal" text-decoration="none" x="841.9072265625" y="312">uuid</text></g></g><g transform="translate(-230,-22) scale(1,1)"><g><path fill="none" stroke="none"/><text fill="#000000" stroke="none" font-family="Arial" font-size="13px" font-style="normal" font-weight="normal" text-decoration="none" x="741" y="311.5"></text></g></g><g transform="translate(-230,-22) scale(1,1)"><g><path fill="none" stroke="none"/><text fill="#000000" stroke="none" font-family="Arial" font-size="13px" font-style="normal" font-weight="normal" text-decoration="none" x="741" y="327"></text></g></g><g transform="translate(-230,-22) scale(1,1)"><g><path fill="none" stroke="none"/><text fill="#000000" stroke="none" font-family="Arial" font-size="13px" font-style="normal" font-weight="normal" text-decoration="none" x="768.3291015625" y="327">Result</text></g></g><g transform="translate(-230,-22) scale(1,1)"><g><path fill="none" stroke="none"/><text fill="#000000" stroke="none" font-family="Arial" font-size="13px" font-style="normal" font-weight="normal" text-decoration="none" x="841.9072265625" y="327">VARCHAR(300)</text></g></g><g transform="translate(-230,-22) scale(1,1)"><g><path fill="none" stroke="none"/><text fill="#000000" stroke="none" font-family="Arial" font-size="13px" font-style="normal" font-weight="normal" text-decoration="none" x="741" y="326.5"></text></g></g><g transform="translate(-230,-22) scale(1,1)"><g><path fill="none" stroke="none"/><text fill="#000000" stroke="none" font-family="Arial" font-size="13px" font-style="normal" font-weight="normal" text-decoration="none" x="741" y="342"></text></g></g><g transform="translate(-230,-22) scale(1,1)"><g><path fill="none" stroke="none"/><text fill="#000000" stroke="none" font-family="Arial" font-size="13px" font-style="normal" font-weight="normal" text-decoration="none" x="768.3291015625" y="342">Date_Sent</text></g></g><g transform="translate(-230,-22) scale(1,1)"><g><path fill="none" stroke="none"/><text fill="#000000" stroke="none" font-family="Arial" font-size="13px" font-style="normal" font-weight="normal" text-decoration="none" x="841.9072265625" y="342">DATE</text></g></g><g transform="translate(-230,-22) scale(1,1)"><g><path fill="none" stroke="none"/><text fill="#000000" stroke="none" font-family="Arial" font-size="13px" font-style="normal" font-weight="normal" text-decoration="none" x="741" y="341.5"></text></g></g><g transform="translate(-230,-22) scale(1,1)"><path fill="none" stroke="#000000" d="M 546 232 L 808 232 M 808 232 A 8 8 0 0 1 816 240 L 816 256" stroke-miterlimit="10"/></g><g transform="translate(-230,-22) scale(1,1)"><path fill="none" stroke="#000000" d="M 816 242 L 809 256" stroke-miterlimit="10"/></g><g transform="translate(-230,-22) scale(1,1)"><path fill="none" stroke="#000000" d="M 816 242 L 823 256" stroke-miterlimit="10"/></g><g transform="translate(-230,-22) scale(1,1)"><path fill="#FFFFFF" stroke="none" d="M 809 234 C 809 230.1340064 812.1340064 227 816 227 C 819.8659936 227 823 230.1340064 823 234 C 823 237.8659936 819.8659936 241 816 241 C 812.1340064 241 809 237.8659936 809 234 Z"/></g><g transform="translate(-230,-22) scale(1,1)"><path fill="none" stroke="#000000" d="M 809 234 C 809 230.1340064 812.1340064 227 816 227 C 819.8659936 227 823 230.1340064 823 234 C 823 237.8659936 819.8659936 241 816 241 C 812.1340064 241 809 237.8659936 809 234 Z" stroke-miterlimit="10"/></g><g transform="translate(-230,-22) scale(1,1)"><path fill="none" stroke="#000000" d="M 553 225 L 553 239" stroke-miterlimit="10"/></g><g transform="translate(-230,-22) scale(1,1)"><path fill="none" stroke="#000000" d="M 560 225 L 560 239" stroke-miterlimit="10"/></g><g transform="translate(-230,-22) scale(1,1)"><g><path fill="none" stroke="none"/><text fill="#000000" stroke="none" font-family="Arial" font-size="13px" font-style="normal" font-weight="normal" text-decoration="none" x="570.5" y="223.5"></text></g></g><g transform="translate(-230,-22) scale(1,1)"><g><path fill="none" stroke="none"/><text fill="#000000" stroke="none" font-family="Arial" font-size="13px" font-style="normal" font-weight="normal" text-decoration="none" x="830.5" y="236.5"></text></g></g><g transform="translate(-230,-22) scale(1,1)"><path fill="none" stroke="#000000" d="M 546 392 L 824 392 M 824 392 A 8 8 0 0 0 832 384 L 832 361" stroke-miterlimit="10"/></g><g transform="translate(-230,-22) scale(1,1)"><path fill="none" stroke="#000000" d="M 832 375 L 839 361" stroke-miterlimit="10"/></g><g transform="translate(-230,-22) scale(1,1)"><path fill="none" stroke="#000000" d="M 832 375 L 825 361" stroke-miterlimit="10"/></g><g transform="translate(-230,-22) scale(1,1)"><path fill="#FFFFFF" stroke="none" d="M 825 383 C 825 379.1340064 828.1340064 376 832 376 C 835.8659936 376 839 379.1340064 839 383 C 839 386.8659936 835.8659936 390 832 390 C 828.1340064 390 825 386.8659936 825 383 Z"/></g><g transform="translate(-230,-22) scale(1,1)"><path fill="none" stroke="#000000" d="M 825 383 C 825 379.1340064 828.1340064 376 832 376 C 835.8659936 376 839 379.1340064 839 383 C 839 386.8659936 835.8659936 390 832 390 C 828.1340064 390 825 386.8659936 825 383 Z" stroke-miterlimit="10"/></g><g transform="translate(-230,-22) scale(1,1)"><path fill="none" stroke="#000000" d="M 553 385 L 553 399" stroke-miterlimit="10"/></g><g transform="translate(-230,-22) scale(1,1)"><path fill="none" stroke="#000000" d="M 560 385 L 560 399" stroke-miterlimit="10"/></g><g transform="translate(-230,-22) scale(1,1)"><g><path fill="none" stroke="none"/><text fill="#000000" stroke="none" font-family="Arial" font-size="13px" font-style="normal" font-weight="normal" text-decoration="none" x="570.5" y="383.5"></text></g></g><g transform="translate(-230,-22) scale(1,1)"><g><path fill="none" stroke="none"/><text fill="#000000" stroke="none" font-family="Arial" font-size="13px" font-style="normal" font-weight="normal" text-decoration="none" x="816.5" y="392.5"></text></g></g></g></svg>