<svg version="1.1" xmlns="http://www.w3.org/2000/svg" xmlns:xlink="http://www.w3.org/1999/xlink" width="1042.3017578125" height="260"><defs/><g><text fill="#eeeeee" stroke="none" font-family="Arial" font-size="24px" font-style="normal" font-weight="normal" text-decoration="none" x="0" y="0">UNREGISTERED</text><text fill="#eeeeee" stroke="none" font-family="Arial" font-size="24px" font-style="normal" font-weight="normal" text-decoration="none" x="0" y="30">UNREGISTERED</text><text fill="#eeeeee" stroke="none" font-family="Arial" font-size="24px" font-style="normal" font-weight="normal" text-decoration="none" x="0" y="60">UNREGISTERED</text><text fill="#eeeeee" stroke="none" font-family="Arial" font-size="24px" font-style="normal" font-weight="normal" text-decoration="none" x="0" y="90">UNREGISTERED</text><text fill="#eeeeee" stroke="none" font-family="Arial" font-size="24px" font-style="normal" font-weight="normal" text-decoration="none" x="0" y="120">UNREGISTERED</text><text fill="#eeeeee" stroke="none" font-family="Arial" font-size="24px" font-style="normal" font-weight="normal" text-decoration="none" x="0" y="150">UNREGISTERED</text><text fill="#eeeeee" stroke="none" font-family="Arial" font-size="24px" font-style="normal" font-weight="normal" text-decoration="none" x="0" y="180">UNREGISTERED</text><text fill="#eeeeee" stroke="none" font-family="Arial" font-size="24px" font-style="normal" font-weight="normal" text-decoration="none" x="0" y="210">UNREGISTERED</text><text fill="#eeeeee" stroke="none" font-family="Arial" font-size="24px" font-style="normal" font-weight="normal" text-decoration="none" x="0" y="240">UNREGISTERED</text><text fill="#eeeeee" stroke="none" font-family="Arial" font-size="24px" font-style="normal" font-weight="normal" text-decoration="none" x="200" y="0">UNREGISTERED</text><text fill="#eeeeee" stroke="none" font-family="Arial" font-size="24px" font-style="normal" font-weight="normal" text-decoration="none" x="200" y="30">UNREGISTERED</text><text fill="#eeeeee" stroke="none" font-family="Arial" font-size="24px" font-style="normal" font-weight="normal" text-decoration="none" x="200" y="60">UNREGISTERED</text><text fill="#eeeeee" stroke="none" font-family="Arial" font-size="24px" font-style="normal" font-weight="normal" text-decoration="none" x="200" y="90">UNREGISTERED</text><text fill="#eeeeee" stroke="none" font-family="Arial" font-size="24px" font-style="normal" font-weight="normal" text-decoration="none" x="200" y="120">UNREGISTERED</text><text fill="#eeeeee" stroke="none" font-family="Arial" font-size="24px" font-style="normal" font-weight="normal" text-decoration="none" x="200" y="150">UNREGISTERED</text><text fill="#eeeeee" stroke="none" font-family="Arial" font-size="24px" font-style="normal" font-weight="normal" text-decoration="none" x="200" y="180">UNREGISTERED</text><text fill="#eeeeee" stroke="none" font-family="Arial" font-size="24px" font-style="normal" font-weight="normal" text-decoration="none" x="200" y="210">UNREGISTERED</text><text fill="#eeeeee" stroke="none" font-family="Arial" font-size="24px" font-style="normal" font-weight="normal" text-decoration="none" x="200" y="240">UNREGISTERED</text><text fill="#eeeeee" stroke="none" font-family="Arial" font-size="24px" font-style="normal" font-weight="normal" text-decoration="none" x="400" y="0">UNREGISTERED</text><text fill="#eeeeee" stroke="none" font-family="Arial" font-size="24px" font-style="normal" font-weight="normal" text-decoration="none" x="400" y="30">UNREGISTERED</text><text fill="#eeeeee" stroke="none" font-family="Arial" font-size="24px" font-style="normal" font-weight="normal" text-decoration="none" x="400" y="60">UNREGISTERED</text><text fill="#eeeeee" stroke="none" font-family="Arial" font-size="24px" font-style="normal" font-weight="normal" text-decoration="none" x="400" y="90">UNREGISTERED</text><text fill="#eeeeee" stroke="none" font-family="Arial" font-size="24px" font-style="normal" font-weight="normal" text-decoration="none" x="400" y="120">UNREGISTERED</text><text fill="#eeeeee" stroke="none" font-family="Arial" font-size="24px" font-style="normal" font-weight="normal" text-decoration="none" x="400" y="150">UNREGISTERED</text><text fill="#eeeeee" stroke="none" font-family="Arial" font-size="24px" font-style="normal" font-weight="normal" text-decoration="none" x="400" y="180">UNREGISTERED</text><text fill="#eeeeee" stroke="none" font-family="Arial" font-size="24px" font-style="normal" font-weight="normal" text-decoration="none" x="400" y="210">UNREGISTERED</text><text fill="#eeeeee" stroke="none" font-family="Arial" font-size="24px" font-style="normal" font-weight="normal" text-decoration="none" x="400" y="240">UNREGISTERED</text><text fill="#eeeeee" stroke="none" font-family="Arial" font-size="24px" font-style="normal" font-weight="normal" text-decoration="none" x="600" y="0">UNREGISTERED</text><text fill="#eeeeee" stroke="none" font-family="Arial" font-size="24px" font-style="normal" font-weight="normal" text-decoration="none" x="600" y="30">UNREGISTERED</text><text fill="#eeeeee" stroke="none" font-family="Arial" font-size="24px" font-style="normal" font-weight="normal" text-decoration="none" x="600" y="60">UNREGISTERED</text><text fill="#eeeeee" stroke="none" font-family="Arial" font-size="24px" font-style="normal" font-weight="normal" text-decoration="none" x="600" y="90">UNREGISTERED</text><text fill="#eeeeee" stroke="none" font-family="Arial" font-size="24px" font-style="normal" font-weight="normal" text-decoration="none" x="600" y="120">UNREGISTERED</text><text fill="#eeeeee" stroke="none" font-family="Arial" font-size="24px" font-style="normal" font-weight="normal" text-decoration="none" x="600" y="150">UNREGISTERED</text><text fill="#eeeeee" stroke="none" font-family="Arial" font-size="24px" font-style="normal" font-weight="normal" text-decoration="none" x="600" y="180">UNREGISTERED</text><text fill="#eeeeee" stroke="none" font-family="Arial" font-size="24px" font-style="normal" font-weight="normal" text-decoration="none" x="600" y="210">UNREGISTERED</text><text fill="#eeeeee" stroke="none" font-family="Arial" font-size="24px" font-style="normal" font-weight="normal" text-decoration="none" x="600" y="240">UNREGISTERED</text><text fill="#eeeeee" stroke="none" font-family="Arial" font-size="24px" font-style="normal" font-weight="normal" text-decoration="none" x="800" y="0">UNREGISTERED</text><text fill="#eeeeee" stroke="none" font-family="Arial" font-size="24px" font-style="normal" font-weight="normal" text-decoration="none" x="800" y="30">UNREGISTERED</text><text fill="#eeeeee" stroke="none" font-family="Arial" font-size="24px" font-style="normal" font-weight="normal" text-decoration="none" x="800" y="60">UNREGISTERED</text><text fill="#eeeeee" stroke="none" font-family="Arial" font-size="24px" font-style="normal" font-weight="normal" text-decoration="none" x="800" y="90">UNREGISTERED</text><text fill="#eeeeee" stroke="none" font-family="Arial" font-size="24px" font-style="normal" font-weight="normal" text-decoration="none" x="800" y="120">UNREGISTERED</text><text fill="#eeeeee" stroke="none" font-family="Arial" font-size="24px" font-style="normal" font-weight="normal" text-decoration="none" x="800" y="150">UNREGISTERED</text><text fill="#eeeeee" stroke="none" font-family="Arial" font-size="24px" font-style="normal" font-weight="normal" text-decoration="none" x="800" y="180">UNREGISTERED</text><text fill="#eeeeee" stroke="none" font-family="Arial" font-size="24px" font-style="normal" font-weight="normal" text-decoration="none" x="800" y="210">UNREGISTERED</text><text fill="#eeeeee" stroke="none" font-family="Arial" font-size="24px" font-style="normal" font-weight="normal" text-decoration="none" x="800" y="240">UNREGISTERED</text><text fill="#eeeeee" stroke="none" font-family="Arial" font-size="24px" font-style="normal" font-weight="normal" text-decoration="none" x="1000" y="0">UNREGISTERED</text><text fill="#eeeeee" stroke="none" font-family="Arial" font-size="24px" font-style="normal" font-weight="normal" text-decoration="none" x="1000" y="30">UNREGISTERED</text><text fill="#eeeeee" stroke="none" font-family="Arial" font-size="24px" font-style="normal" font-weight="normal" text-decoration="none" x="1000" y="60">UNREGISTERED</text><text fill="#eeeeee" stroke="none" font-family="Arial" font-size="24px" font-style="normal" font-weight="normal" text-decoration="none" x="1000" y="90">UNREGISTERED</text><text fill="#eeeeee" stroke="none" font-family="Arial" font-size="24px" font-style="normal" font-weight="normal" text-decoration="none" x="1000" y="120">UNREGISTERED</text><text fill="#eeeeee" stroke="none" font-family="Arial" font-size="24px" font-style="normal" font-weight="normal" text-decoration="none" x="1000" y="150">UNREGISTERED</text><text fill="#eeeeee" stroke="none" font-family="Arial" font-size="24px" font-style="normal" font-weight="normal" text-decoration="none" x="1000" y="180">UNREGISTERED</text><text fill="#eeeeee" stroke="none" font-family="Arial" font-size="24px" font-style="normal" font-weight="normal" text-decoration="none" x="1000" y="210">UNREGISTERED</text><text fill="#eeeeee" stroke="none" font-family="Arial" font-size="24px" font-style="normal" font-weight="normal" text-decoration="none" x="1000" y="240">UNREGISTERED</text><g transform="translate(-134,-6) scale(1,1)"><rect fill="#C0C0C0" stroke="none" x="151" y="103" width="248" height="160" opacity="0.2"/></g><g transform="translate(-134,-6) scale(1,1)"><rect fill="#ffffff" stroke="none" x="144" y="96" width="248" height="160"/></g><g transform="translate(-134,-6) scale(1,1)"><path fill="none" stroke="#000000" d="M 144 96 L 392 96 L 392 256 L 144 256 L 144 96 Z Z" stroke-miterlimit="10"/></g><g transform="translate(-134,-6) scale(1,1)"><path fill="none" stroke="#000000" d="M 144 119 L 392 119" stroke-miterlimit="10"/></g><g transform="translate(-134,-6) scale(1,1)"><path fill="none" stroke="#000000" d="M 172.05908203125 119 L 172.05908203125 256" stroke-miterlimit="10"/></g><g transform="translate(-134,-6) scale(1,1)"><path fill="none" stroke="#000000" d="M 275.25537109375 119 L 275.25537109375 256" stroke-miterlimit="10"/></g><g transform="translate(-134,-6) scale(1,1)"><g><path fill="none" stroke="none"/><text fill="#000000" stroke="none" font-family="Arial" font-size="13px" font-style="normal" font-weight="bold" text-decoration="none" x="232.951416015625" y="113.5">Planograma</text></g></g><g transform="translate(-134,-6) scale(1,1)"><g><path fill="none" stroke="none"/><text fill="#000000" stroke="none" font-family="Arial" font-size="13px" font-style="normal" font-weight="normal" text-decoration="none" x="149" y="137">PK</text></g></g><g transform="translate(-134,-6) scale(1,1)"><g><path fill="none" stroke="none"/><text fill="#000000" stroke="none" font-family="Arial" font-size="13px" font-style="normal" font-weight="normal" text-decoration="none" x="177.05908203125" y="137">Id_Planograma</text></g></g><g transform="translate(-134,-6) scale(1,1)"><g><path fill="none" stroke="none"/><text fill="#000000" stroke="none" font-family="Arial" font-size="13px" font-style="normal" font-weight="normal" text-decoration="none" x="280.25537109375" y="137">uuid</text></g></g><g transform="translate(-134,-6) scale(1,1)"><g><path fill="none" stroke="none"/><text fill="#000000" stroke="none" font-family="Arial" font-size="13px" font-style="normal" font-weight="normal" text-decoration="none" x="149" y="136.5"></text></g></g><g transform="translate(-134,-6) scale(1,1)"><g><path fill="none" stroke="none"/><text fill="#000000" stroke="none" font-family="Arial" font-size="13px" font-style="normal" font-weight="normal" text-decoration="none" x="149" y="152">FK</text></g></g><g transform="translate(-134,-6) scale(1,1)"><g><path fill="none" stroke="none"/><text fill="#000000" stroke="none" font-family="Arial" font-size="13px" font-style="normal" font-weight="normal" text-decoration="none" x="177.05908203125" y="152">Id_Client</text></g></g><g transform="translate(-134,-6) scale(1,1)"><g><path fill="none" stroke="none"/><text fill="#000000" stroke="none" font-family="Arial" font-size="13px" font-style="normal" font-weight="normal" text-decoration="none" x="280.25537109375" y="152">uuid</text></g></g><g transform="translate(-134,-6) scale(1,1)"><g><path fill="none" stroke="none"/><text fill="#000000" stroke="none" font-family="Arial" font-size="13px" font-style="normal" font-weight="normal" text-decoration="none" x="149" y="151.5"></text></g></g><g transform="translate(-134,-6) scale(1,1)"><g><path fill="none" stroke="none"/><text fill="#000000" stroke="none" font-family="Arial" font-size="13px" font-style="normal" font-weight="normal" text-decoration="none" x="149" y="167">FK</text></g></g><g transform="translate(-134,-6) scale(1,1)"><g><path fill="none" stroke="none"/><text fill="#000000" stroke="none" font-family="Arial" font-size="13px" font-style="normal" font-weight="normal" text-decoration="none" x="177.05908203125" y="167">Id_Estudio</text></g></g><g transform="translate(-134,-6) scale(1,1)"><g><path fill="none" stroke="none"/><text fill="#000000" stroke="none" font-family="Arial" font-size="13px" font-style="normal" font-weight="normal" text-decoration="none" x="280.25537109375" y="167">uuid</text></g></g><g transform="translate(-134,-6) scale(1,1)"><g><path fill="none" stroke="none"/><text fill="#000000" stroke="none" font-family="Arial" font-size="13px" font-style="normal" font-weight="normal" text-decoration="none" x="149" y="166.5"></text></g></g><g transform="translate(-134,-6) scale(1,1)"><g><path fill="none" stroke="none"/><text fill="#000000" stroke="none" font-family="Arial" font-size="13px" font-style="normal" font-weight="normal" text-decoration="none" x="149" y="182"></text></g></g><g transform="translate(-134,-6) scale(1,1)"><g><path fill="none" stroke="none"/><text fill="#000000" stroke="none" font-family="Arial" font-size="13px" font-style="normal" font-weight="normal" text-decoration="none" x="177.05908203125" y="182">Consecutivo</text></g></g><g transform="translate(-134,-6) scale(1,1)"><g><path fill="none" stroke="none"/><text fill="#000000" stroke="none" font-family="Arial" font-size="13px" font-style="normal" font-weight="normal" text-decoration="none" x="280.25537109375" y="182">Integer</text></g></g><g transform="translate(-134,-6) scale(1,1)"><g><path fill="none" stroke="none"/><text fill="#000000" stroke="none" font-family="Arial" font-size="13px" font-style="normal" font-weight="normal" text-decoration="none" x="149" y="181.5"></text></g></g><g transform="translate(-134,-6) scale(1,1)"><g><path fill="none" stroke="none"/><text fill="#000000" stroke="none" font-family="Arial" font-size="13px" font-style="normal" font-weight="normal" text-decoration="none" x="149" y="197"></text></g></g><g transform="translate(-134,-6) scale(1,1)"><g><path fill="none" stroke="none"/><text fill="#000000" stroke="none" font-family="Arial" font-size="13px" font-style="normal" font-weight="normal" text-decoration="none" x="177.05908203125" y="197">Fecha_Inicio</text></g></g><g transform="translate(-134,-6) scale(1,1)"><g><path fill="none" stroke="none"/><text fill="#000000" stroke="none" font-family="Arial" font-size="13px" font-style="normal" font-weight="normal" text-decoration="none" x="280.25537109375" y="197">DATE</text></g></g><g transform="translate(-134,-6) scale(1,1)"><g><path fill="none" stroke="none"/><text fill="#000000" stroke="none" font-family="Arial" font-size="13px" font-style="normal" font-weight="normal" text-decoration="none" x="149" y="196.5"></text></g></g><g transform="translate(-134,-6) scale(1,1)"><g><path fill="none" stroke="none"/><text fill="#000000" stroke="none" font-family="Arial" font-size="13px" font-style="normal" font-weight="normal" text-decoration="none" x="149" y="212"></text></g></g><g transform="translate(-134,-6) scale(1,1)"><g><path fill="none" stroke="none"/><text fill="#000000" stroke="none" font-family="Arial" font-size="13px" font-style="normal" font-weight="normal" text-decoration="none" x="177.05908203125" y="212">Fecha_Fin</text></g></g><g transform="translate(-134,-6) scale(1,1)"><g><path fill="none" stroke="none"/><text fill="#000000" stroke="none" font-family="Arial" font-size="13px" font-style="normal" font-weight="normal" text-decoration="none" x="280.25537109375" y="212">DATE</text></g></g><g transform="translate(-134,-6) scale(1,1)"><g><path fill="none" stroke="none"/><text fill="#000000" stroke="none" font-family="Arial" font-size="13px" font-style="normal" font-weight="normal" text-decoration="none" x="149" y="211.5"></text></g></g><g transform="translate(-134,-6) scale(1,1)"><g><path fill="none" stroke="none"/><text fill="#000000" stroke="none" font-family="Arial" font-size="13px" font-style="normal" font-weight="normal" text-decoration="none" x="149" y="227"></text></g></g><g transform="translate(-134,-6) scale(1,1)"><g><path fill="none" stroke="none"/><text fill="#000000" stroke="none" font-family="Arial" font-size="13px" font-style="normal" font-weight="normal" text-decoration="none" x="177.05908203125" y="227">Descripción</text></g></g><g transform="translate(-134,-6) scale(1,1)"><g><path fill="none" stroke="none"/><text fill="#000000" stroke="none" font-family="Arial" font-size="13px" font-style="normal" font-weight="normal" text-decoration="none" x="280.25537109375" y="227">TEXT</text></g></g><g transform="translate(-134,-6) scale(1,1)"><g><path fill="none" stroke="none"/><text fill="#000000" stroke="none" font-family="Arial" font-size="13px" font-style="normal" font-weight="normal" text-decoration="none" x="149" y="226.5"></text></g></g><g transform="translate(-134,-6) scale(1,1)"><g><path fill="none" stroke="none"/><text fill="#000000" stroke="none" font-family="Arial" font-size="13px" font-style="normal" font-weight="normal" text-decoration="none" x="149" y="242"></text></g></g><g transform="translate(-134,-6) scale(1,1)"><g><path fill="none" stroke="none"/><text fill="#000000" stroke="none" font-family="Arial" font-size="13px" font-style="normal" font-weight="normal" text-decoration="none" x="177.05908203125" y="242">Id_user</text></g></g><g transform="translate(-134,-6) scale(1,1)"><g><path fill="none" stroke="none"/><text fill="#000000" stroke="none" font-family="Arial" font-size="13px" font-style="normal" font-weight="normal" text-decoration="none" x="280.25537109375" y="242">uuid</text></g></g><g transform="translate(-134,-6) scale(1,1)"><g><path fill="none" stroke="none"/><text fill="#000000" stroke="none" font-family="Arial" font-size="13px" font-style="normal" font-weight="normal" text-decoration="none" x="149" y="241.5"></text></g></g><g transform="translate(-134,-6) scale(1,1)"><path fill="#ffff00" stroke="none" d="M 400 16 L 612 16 L 622 26 L 622 54 L 400 54 L 400 16"/></g><g transform="translate(-134,-6) scale(1,1)"><path fill="none" stroke="#000000" d="M 400 16 L 612 16 L 622 26 L 622 54 L 400 54 L 400 16 L 400 16" stroke-miterlimit="10"/></g><g transform="translate(-134,-6) scale(1,1)"><path fill="none" stroke="#000000" d="M 612 16 L 612 26 L 622 26 L 612 16" stroke-miterlimit="10"/></g><g transform="translate(-134,-6) scale(1,1)"><g><path fill="none" stroke="none"/><text fill="#000000" stroke="none" font-family="Roboto" font-size="20px" font-style="normal" font-weight="normal" text-decoration="none" x="444.3564453125" y="45">PLANOGRAMA</text></g></g><g transform="translate(-134,-6) scale(1,1)"><rect fill="#C0C0C0" stroke="none" x="535" y="127" width="216.83349609375" height="88" opacity="0.2"/></g><g transform="translate(-134,-6) scale(1,1)"><rect fill="#ffffff" stroke="none" x="528" y="120" width="216.83349609375" height="88"/></g><g transform="translate(-134,-6) scale(1,1)"><path fill="none" stroke="#000000" d="M 528 120 L 744.83349609375 120 L 744.83349609375 208 L 528 208 L 528 120 Z Z" stroke-miterlimit="10"/></g><g transform="translate(-134,-6) scale(1,1)"><path fill="none" stroke="#000000" d="M 528 143 L 744.83349609375 143" stroke-miterlimit="10"/></g><g transform="translate(-134,-6) scale(1,1)"><path fill="none" stroke="#000000" d="M 556.05908203125 143 L 556.05908203125 208" stroke-miterlimit="10"/></g><g transform="translate(-134,-6) scale(1,1)"><path fill="none" stroke="#000000" d="M 708.39892578125 143 L 708.39892578125 208" stroke-miterlimit="10"/></g><g transform="translate(-134,-6) scale(1,1)"><g><path fill="none" stroke="none"/><text fill="#000000" stroke="none" font-family="Arial" font-size="13px" font-style="normal" font-weight="bold" text-decoration="none" x="572.82275390625" y="137.5">Salas del Planograma</text></g></g><g transform="translate(-134,-6) scale(1,1)"><g><path fill="none" stroke="none"/><text fill="#000000" stroke="none" font-family="Arial" font-size="13px" font-style="normal" font-weight="normal" text-decoration="none" x="533" y="161">PK</text></g></g><g transform="translate(-134,-6) scale(1,1)"><g><path fill="none" stroke="none"/><text fill="#000000" stroke="none" font-family="Arial" font-size="13px" font-style="normal" font-weight="normal" text-decoration="none" x="561.05908203125" y="161">Id_Sala_Planogramada</text></g></g><g transform="translate(-134,-6) scale(1,1)"><g><path fill="none" stroke="none"/><text fill="#000000" stroke="none" font-family="Arial" font-size="13px" font-style="normal" font-weight="normal" text-decoration="none" x="713.39892578125" y="161">uuid</text></g></g><g transform="translate(-134,-6) scale(1,1)"><g><path fill="none" stroke="none"/><text fill="#000000" stroke="none" font-family="Arial" font-size="13px" font-style="normal" font-weight="normal" text-decoration="none" x="533" y="160.5"></text></g></g><g transform="translate(-134,-6) scale(1,1)"><g><path fill="none" stroke="none"/><text fill="#000000" stroke="none" font-family="Arial" font-size="13px" font-style="normal" font-weight="normal" text-decoration="none" x="533" y="176">FK</text></g></g><g transform="translate(-134,-6) scale(1,1)"><g><path fill="none" stroke="none"/><text fill="#000000" stroke="none" font-family="Arial" font-size="13px" font-style="normal" font-weight="normal" text-decoration="none" x="561.05908203125" y="176">Id_Planograma</text></g></g><g transform="translate(-134,-6) scale(1,1)"><g><path fill="none" stroke="none"/><text fill="#000000" stroke="none" font-family="Arial" font-size="13px" font-style="normal" font-weight="normal" text-decoration="none" x="713.39892578125" y="176">uuid</text></g></g><g transform="translate(-134,-6) scale(1,1)"><g><path fill="none" stroke="none"/><text fill="#000000" stroke="none" font-family="Arial" font-size="13px" font-style="normal" font-weight="normal" text-decoration="none" x="533" y="175.5"></text></g></g><g transform="translate(-134,-6) scale(1,1)"><g><path fill="none" stroke="none"/><text fill="#000000" stroke="none" font-family="Arial" font-size="13px" font-style="normal" font-weight="normal" text-decoration="none" x="533" y="191">FK</text></g></g><g transform="translate(-134,-6) scale(1,1)"><g><path fill="none" stroke="none"/><text fill="#000000" stroke="none" font-family="Arial" font-size="13px" font-style="normal" font-weight="normal" text-decoration="none" x="561.05908203125" y="191">Id_Sala</text></g></g><g transform="translate(-134,-6) scale(1,1)"><g><path fill="none" stroke="none"/><text fill="#000000" stroke="none" font-family="Arial" font-size="13px" font-style="normal" font-weight="normal" text-decoration="none" x="713.39892578125" y="191">uuid</text></g></g><g transform="translate(-134,-6) scale(1,1)"><g><path fill="none" stroke="none"/><text fill="#000000" stroke="none" font-family="Arial" font-size="13px" font-style="normal" font-weight="normal" text-decoration="none" x="533" y="190.5"></text></g></g><g transform="translate(-134,-6) scale(1,1)"><path fill="none" stroke="#000000" d="M 392 158 L 528 158" stroke-miterlimit="10"/></g><g transform="translate(-134,-6) scale(1,1)"><path fill="none" stroke="#000000" d="M 514 158 L 528 165" stroke-miterlimit="10"/></g><g transform="translate(-134,-6) scale(1,1)"><path fill="none" stroke="#000000" d="M 514 158 L 528 151" stroke-miterlimit="10"/></g><g transform="translate(-134,-6) scale(1,1)"><path fill="#FFFFFF" stroke="none" d="M 499 158 C 499 154.1340064 502.1340064 151 506 151 C 509.8659936 151 513 154.1340064 513 158 C 513 161.8659936 509.8659936 165 506 165 C 502.1340064 165 499 161.8659936 499 158 Z"/></g><g transform="translate(-134,-6) scale(1,1)"><path fill="none" stroke="#000000" d="M 499 158 C 499 154.1340064 502.1340064 151 506 151 C 509.8659936 151 513 154.1340064 513 158 C 513 161.8659936 509.8659936 165 506 165 C 502.1340064 165 499 161.8659936 499 158 Z" stroke-miterlimit="10"/></g><g transform="translate(-134,-6) scale(1,1)"><path fill="none" stroke="#000000" d="M 399 151 L 399 165" stroke-miterlimit="10"/></g><g transform="translate(-134,-6) scale(1,1)"><path fill="none" stroke="#000000" d="M 406 151 L 406 165" stroke-miterlimit="10"/></g><g transform="translate(-134,-6) scale(1,1)"><g><path fill="none" stroke="none"/><text fill="#000000" stroke="none" font-family="Arial" font-size="13px" font-style="normal" font-weight="normal" text-decoration="none" x="416.5" y="149.5"></text></g></g><g transform="translate(-134,-6) scale(1,1)"><g><path fill="none" stroke="none"/><text fill="#000000" stroke="none" font-family="Arial" font-size="13px" font-style="normal" font-weight="normal" text-decoration="none" x="501.5" y="149.5"></text></g></g><g transform="translate(-134,-6) scale(1,1)"><rect fill="#C0C0C0" stroke="none" x="911" y="119" width="262.3017578125" height="135" opacity="0.2"/></g><g transform="translate(-134,-6) scale(1,1)"><rect fill="#ffffff" stroke="none" x="904" y="112" width="262.3017578125" height="135"/></g><g transform="translate(-134,-6) scale(1,1)"><path fill="none" stroke="#000000" d="M 904 112 L 1166.3017578125 112 L 1166.3017578125 247 L 904 247 L 904 112 Z Z" stroke-miterlimit="10"/></g><g transform="translate(-134,-6) scale(1,1)"><path fill="none" stroke="#000000" d="M 904 135 L 1166.3017578125 135" stroke-miterlimit="10"/></g><g transform="translate(-134,-6) scale(1,1)"><path fill="none" stroke="#000000" d="M 932.05908203125 135 L 932.05908203125 247" stroke-miterlimit="10"/></g><g transform="translate(-134,-6) scale(1,1)"><path fill="none" stroke="#000000" d="M 1096.63720703125 135 L 1096.63720703125 247" stroke-miterlimit="10"/></g><g transform="translate(-134,-6) scale(1,1)"><g><path fill="none" stroke="none"/><text fill="#000000" stroke="none" font-family="Arial" font-size="13px" font-style="normal" font-weight="bold" text-decoration="none" x="941.56103515625" y="129.5">Productos_de_Sala/Planograma</text></g></g><g transform="translate(-134,-6) scale(1,1)"><g><path fill="none" stroke="none"/><text fill="#000000" stroke="none" font-family="Arial" font-size="13px" font-style="normal" font-weight="normal" text-decoration="none" x="909" y="153">PK</text></g></g><g transform="translate(-134,-6) scale(1,1)"><g><path fill="none" stroke="none"/><text fill="#000000" stroke="none" font-family="Arial" font-size="13px" font-style="normal" font-weight="normal" text-decoration="none" x="937.05908203125" y="153">Producto_Planogramado</text></g></g><g transform="translate(-134,-6) scale(1,1)"><g><path fill="none" stroke="none"/><text fill="#000000" stroke="none" font-family="Arial" font-size="13px" font-style="normal" font-weight="normal" text-decoration="none" x="1101.63720703125" y="153">uuid</text></g></g><g transform="translate(-134,-6) scale(1,1)"><g><path fill="none" stroke="none"/><text fill="#000000" stroke="none" font-family="Arial" font-size="13px" font-style="normal" font-weight="normal" text-decoration="none" x="909" y="152.5"></text></g></g><g transform="translate(-134,-6) scale(1,1)"><g><path fill="none" stroke="none"/><text fill="#000000" stroke="none" font-family="Arial" font-size="13px" font-style="normal" font-weight="normal" text-decoration="none" x="909" y="168">FK</text></g></g><g transform="translate(-134,-6) scale(1,1)"><g><path fill="none" stroke="none"/><text fill="#000000" stroke="none" font-family="Arial" font-size="13px" font-style="normal" font-weight="normal" text-decoration="none" x="937.05908203125" y="168">Id_Sala_Planogramada</text></g></g><g transform="translate(-134,-6) scale(1,1)"><g><path fill="none" stroke="none"/><text fill="#000000" stroke="none" font-family="Arial" font-size="13px" font-style="normal" font-weight="normal" text-decoration="none" x="1101.63720703125" y="168">uuid</text></g></g><g transform="translate(-134,-6) scale(1,1)"><g><path fill="none" stroke="none"/><text fill="#000000" stroke="none" font-family="Arial" font-size="13px" font-style="normal" font-weight="normal" text-decoration="none" x="909" y="167.5"></text></g></g><g transform="translate(-134,-6) scale(1,1)"><g><path fill="none" stroke="none"/><text fill="#000000" stroke="none" font-family="Arial" font-size="13px" font-style="normal" font-weight="normal" text-decoration="none" x="909" y="183">FK</text></g></g><g transform="translate(-134,-6) scale(1,1)"><g><path fill="none" stroke="none"/><text fill="#000000" stroke="none" font-family="Arial" font-size="13px" font-style="normal" font-weight="normal" text-decoration="none" x="937.05908203125" y="183">Id_Product</text></g></g><g transform="translate(-134,-6) scale(1,1)"><g><path fill="none" stroke="none"/><text fill="#000000" stroke="none" font-family="Arial" font-size="13px" font-style="normal" font-weight="normal" text-decoration="none" x="1101.63720703125" y="183">uuid</text></g></g><g transform="translate(-134,-6) scale(1,1)"><g><path fill="none" stroke="none"/><text fill="#000000" stroke="none" font-family="Arial" font-size="13px" font-style="normal" font-weight="normal" text-decoration="none" x="909" y="182.5"></text></g></g><g transform="translate(-134,-6) scale(1,1)"><g><path fill="none" stroke="none"/><text fill="#000000" stroke="none" font-family="Arial" font-size="13px" font-style="normal" font-weight="normal" text-decoration="none" x="909" y="198">FK</text></g></g><g transform="translate(-134,-6) scale(1,1)"><g><path fill="none" stroke="none"/><text fill="#000000" stroke="none" font-family="Arial" font-size="13px" font-style="normal" font-weight="normal" text-decoration="none" x="937.05908203125" y="198">Id_variable</text></g></g><g transform="translate(-134,-6) scale(1,1)"><g><path fill="none" stroke="none"/><text fill="#000000" stroke="none" font-family="Arial" font-size="13px" font-style="normal" font-weight="normal" text-decoration="none" x="1101.63720703125" y="198">uuid</text></g></g><g transform="translate(-134,-6) scale(1,1)"><g><path fill="none" stroke="none"/><text fill="#000000" stroke="none" font-family="Arial" font-size="13px" font-style="normal" font-weight="normal" text-decoration="none" x="909" y="197.5"></text></g></g><g transform="translate(-134,-6) scale(1,1)"><g><path fill="none" stroke="none"/><text fill="#000000" stroke="none" font-family="Arial" font-size="13px" font-style="normal" font-weight="normal" text-decoration="none" x="909" y="213"></text></g></g><g transform="translate(-134,-6) scale(1,1)"><g><path fill="none" stroke="none"/><text fill="#000000" stroke="none" font-family="Arial" font-size="13px" font-style="normal" font-weight="normal" text-decoration="none" x="937.05908203125" y="213">Valor_x_Defecto_target</text></g></g><g transform="translate(-134,-6) scale(1,1)"><g><path fill="none" stroke="none"/><text fill="#000000" stroke="none" font-family="Arial" font-size="13px" font-style="normal" font-weight="normal" text-decoration="none" x="1101.63720703125" y="213">String</text></g></g><g transform="translate(-134,-6) scale(1,1)"><g><path fill="none" stroke="none"/><text fill="#000000" stroke="none" font-family="Arial" font-size="13px" font-style="normal" font-weight="normal" text-decoration="none" x="909" y="212.5"></text></g></g><g transform="translate(-134,-6) scale(1,1)"><g><path fill="none" stroke="none"/><text fill="#000000" stroke="none" font-family="Arial" font-size="13px" font-style="normal" font-weight="normal" text-decoration="none" x="909" y="228"></text></g></g><g transform="translate(-134,-6) scale(1,1)"><g><path fill="none" stroke="none"/><text fill="#000000" stroke="none" font-family="Arial" font-size="13px" font-style="normal" font-weight="normal" text-decoration="none" x="937.05908203125" y="228">Porc_Validación</text></g></g><g transform="translate(-134,-6) scale(1,1)"><g><path fill="none" stroke="none"/><text fill="#000000" stroke="none" font-family="Arial" font-size="13px" font-style="normal" font-weight="normal" text-decoration="none" x="1101.63720703125" y="228">NUMERIC</text></g></g><g transform="translate(-134,-6) scale(1,1)"><g><path fill="none" stroke="none"/><text fill="#000000" stroke="none" font-family="Arial" font-size="13px" font-style="normal" font-weight="normal" text-decoration="none" x="909" y="227.5"></text></g></g><g transform="translate(-134,-6) scale(1,1)"><path fill="none" stroke="#000000" d="M 745 201 L 904 201" stroke-miterlimit="10"/></g><g transform="translate(-134,-6) scale(1,1)"><path fill="none" stroke="#000000" d="M 890 201 L 904 208" stroke-miterlimit="10"/></g><g transform="translate(-134,-6) scale(1,1)"><path fill="none" stroke="#000000" d="M 890 201 L 904 194" stroke-miterlimit="10"/></g><g transform="translate(-134,-6) scale(1,1)"><path fill="#FFFFFF" stroke="none" d="M 875 201 C 875 197.1340064 878.1340064 194 882 194 C 885.8659936 194 889 197.1340064 889 201 C 889 204.8659936 885.8659936 208 882 208 C 878.1340064 208 875 204.8659936 875 201 Z"/></g><g transform="translate(-134,-6) scale(1,1)"><path fill="none" stroke="#000000" d="M 875 201 C 875 197.1340064 878.1340064 194 882 194 C 885.8659936 194 889 197.1340064 889 201 C 889 204.8659936 885.8659936 208 882 208 C 878.1340064 208 875 204.8659936 875 201 Z" stroke-miterlimit="10"/></g><g transform="translate(-134,-6) scale(1,1)"><path fill="none" stroke="#000000" d="M 752 194 L 752 208" stroke-miterlimit="10"/></g><g transform="translate(-134,-6) scale(1,1)"><path fill="none" stroke="#000000" d="M 759 194 L 759 208" stroke-miterlimit="10"/></g><g transform="translate(-134,-6) scale(1,1)"><g><path fill="none" stroke="none"/><text fill="#000000" stroke="none" font-family="Arial" font-size="13px" font-style="normal" font-weight="normal" text-decoration="none" x="769.5" y="192.5"></text></g></g><g transform="translate(-134,-6) scale(1,1)"><g><path fill="none" stroke="none"/><text fill="#000000" stroke="none" font-family="Arial" font-size="13px" font-style="normal" font-weight="normal" text-decoration="none" x="877.5" y="192.5"></text></g></g></g></svg>